<svg width="115" height="115" viewBox="0 0 115 115" fill="none" xmlns="http://www.w3.org/2000/svg">
<path d="M14.16 110H13.08V98.26L8.76 108H7.68L3.28 98.26V110H2.2V95.76H3.28L8.24 106.74L13.08 95.76H14.16V110ZM25.8872 110H24.8672V101.84L19.3272 110H18.3072V100.36H19.3272V108.52L24.8672 100.36H25.8872V110ZM36.012 101.08C36.8387 101.907 37.252 103.273 37.252 105.18C37.252 107.087 36.8387 108.453 36.012 109.28C35.452 109.84 34.6654 110.12 33.652 110.12C33.052 110.12 32.5254 110.027 32.072 109.84C31.6187 109.64 31.192 109.28 30.792 108.76V114.6H29.772V100.36H30.792V101.6C31.192 101.08 31.6187 100.727 32.072 100.54C32.5254 100.34 33.052 100.24 33.652 100.24C34.6654 100.24 35.452 100.52 36.012 101.08ZM36.132 106.68C36.1987 106.253 36.232 105.753 36.232 105.18C36.232 104.607 36.1987 104.107 36.132 103.68C36.0654 103.253 35.9387 102.833 35.752 102.42C35.5787 102.007 35.2987 101.693 34.912 101.48C34.5387 101.253 34.072 101.14 33.512 101.14C32.952 101.14 32.4787 101.253 32.092 101.48C31.7187 101.693 31.4387 102.007 31.252 102.42C31.0787 102.833 30.9587 103.253 30.892 103.68C30.8254 104.107 30.792 104.607 30.792 105.18C30.792 105.753 30.8254 106.253 30.892 106.68C30.9587 107.107 31.0787 107.527 31.252 107.94C31.4387 108.353 31.7187 108.673 32.092 108.9C32.4787 109.113 32.952 109.22 33.512 109.22C34.072 109.22 34.5387 109.113 34.912 108.9C35.2987 108.673 35.5787 108.353 35.752 107.94C35.9387 107.527 36.0654 107.107 36.132 106.68ZM52.9705 110H51.9505V101.26H46.6905V110H45.6705V100.36H52.9705V110ZM62.7252 101.3C63.5252 102.1 63.9252 103.393 63.9252 105.18C63.9252 106.967 63.5252 108.26 62.7252 109.06C62.0185 109.767 61.1252 110.12 60.0452 110.12C58.9652 110.12 58.0718 109.767 57.3652 109.06C56.5652 108.26 56.1652 106.967 56.1652 105.18C56.1652 103.393 56.5652 102.1 57.3652 101.3C58.0718 100.593 58.9652 100.24 60.0452 100.24C61.1252 100.24 62.0185 100.593 62.7252 101.3ZM62.0452 108.4C62.6185 107.827 62.9052 106.753 62.9052 105.18C62.9052 103.607 62.6185 102.533 62.0452 101.96C61.4985 101.413 60.8318 101.14 60.0452 101.14C59.2585 101.14 58.5918 101.413 58.0452 101.96C57.4718 102.533 57.1852 103.607 57.1852 105.18C57.1852 106.753 57.4718 107.827 58.0452 108.4C58.5918 108.947 59.2585 109.22 60.0452 109.22C60.8318 109.22 61.4985 108.947 62.0452 108.4ZM68.3925 105.02L73.0525 100.36H74.3725L69.7125 104.94L74.8325 110H73.4325L68.3925 105.02ZM68.3725 100.36V110H67.3525V100.36H68.3725ZM83.3395 100.36L78.8595 112.62C78.6729 113.153 78.4529 113.527 78.1995 113.74C77.7729 114.153 77.1662 114.36 76.3795 114.36H75.8995V113.46H76.2795C76.8129 113.46 77.1929 113.367 77.4195 113.18C77.6595 112.993 77.8662 112.647 78.0395 112.14L78.8195 110L75.2995 100.36H76.4195L79.3195 108.8L82.2195 100.36H83.3395ZM92.8533 110H91.8333V101.26H86.5733V110H85.5533V100.36H92.8533V110ZM102.608 101.3C103.408 102.1 103.808 103.393 103.808 105.18C103.808 106.967 103.408 108.26 102.608 109.06C101.901 109.767 101.008 110.12 99.928 110.12C98.848 110.12 97.9546 109.767 97.248 109.06C96.448 108.26 96.048 106.967 96.048 105.18C96.048 103.393 96.448 102.1 97.248 101.3C97.9546 100.593 98.848 100.24 99.928 100.24C101.008 100.24 101.901 100.593 102.608 101.3ZM101.928 108.4C102.501 107.827 102.788 106.753 102.788 105.18C102.788 103.607 102.501 102.533 101.928 101.96C101.381 101.413 100.715 101.14 99.928 101.14C99.1413 101.14 98.4746 101.413 97.928 101.96C97.3546 102.533 97.068 103.607 97.068 105.18C97.068 106.753 97.3546 107.827 97.928 108.4C98.4746 108.947 99.1413 109.22 99.928 109.22C100.715 109.22 101.381 108.947 101.928 108.4ZM108.275 105.02L112.935 100.36H114.255L109.595 104.94L114.715 110H113.315L108.275 105.02ZM108.255 100.36V110H107.235V100.36H108.255Z" fill="black"/>
<rect x="18" width="80" height="80" rx="15" fill="#DA57F8"/>
<path d="M64.731 21.8323C64.2566 18.5075 61.3626 16 57.9997 16C55.8369 16 53.7829 17.0437 52.5058 18.7928C52.2449 19.1495 52.323 19.6499 52.6797 19.9107C53.0352 20.1706 53.5368 20.0935 53.7972 19.7363C54.7747 18.3988 56.3455 17.6 57.9994 17.6C60.5714 17.6 62.7841 19.5167 63.1469 22.058C63.2041 22.4571 63.5465 22.7452 63.9381 22.7452C63.9754 22.7452 64.0138 22.7424 64.052 22.7372C64.4894 22.6746 64.7934 22.2694 64.731 21.8323Z" fill="white"/>
<path d="M76.2853 30.7879L73.8854 26.7879C73.741 26.5467 73.4806 26.3995 73.1994 26.3995H70.8995C70.4579 26.3995 70.0996 26.7579 70.0996 27.1994C70.0996 27.641 70.4579 27.9993 70.8995 27.9993H72.7466L74.1865 30.3993H41.8127L43.2526 27.9993H44.0999C44.5414 27.9993 44.8998 27.641 44.8998 27.1994C44.8998 26.7579 44.5414 26.3995 44.0999 26.3995H42.7998C42.5186 26.3995 42.2582 26.5467 42.1138 26.7879L39.7139 30.7879C39.5655 31.0354 39.562 31.3431 39.7038 31.5939C39.8456 31.8446 40.1114 31.9998 40.3999 31.9998H75.5993C75.8878 31.9998 76.1534 31.8446 76.2954 31.5939C76.4374 31.3431 76.4337 31.0349 76.2853 30.7879Z" fill="white"/>
<path d="M72.2976 23.4115C72.1856 23.2308 72.0068 23.1026 71.8 23.0543L60.8945 20.5037C60.6881 20.4551 60.4706 20.4912 60.2901 20.6028C60.1101 20.7148 59.9817 20.8937 59.9334 21.1004L59.111 24.6159C59.0102 25.046 59.2774 25.4763 59.7077 25.5766C60.1378 25.6774 60.5685 25.4102 60.6688 24.9799L61.3091 22.2436L70.6566 24.4301L69.1877 30.71C69.087 31.1401 69.3542 31.5704 69.7845 31.6707C69.8461 31.685 69.9073 31.6918 69.9677 31.6918C70.331 31.6918 70.6598 31.4429 70.7454 31.0742L72.3965 24.0155C72.4453 23.809 72.4096 23.5915 72.2976 23.4115Z" fill="white"/>
<path d="M58.4227 25.3027L57.6939 19.1375C57.669 18.9268 57.5614 18.7344 57.3946 18.6032C57.2277 18.4719 57.017 18.4119 56.8054 18.4368L43.4251 20.0183C42.9866 20.0703 42.673 20.4678 42.7248 20.9068L43.94 31.1894C43.9883 31.5965 44.3336 31.8957 44.7336 31.8957C44.7648 31.8957 44.7969 31.8936 44.8288 31.8901C45.2671 31.8381 45.5806 31.4406 45.5291 31.0016L44.4076 21.5129L56.199 20.1193L56.8337 25.4899C56.8857 25.9287 57.2814 26.2404 57.7222 26.1907C58.1607 26.1391 58.4743 25.7414 58.4227 25.3027Z" fill="white"/>
<path d="M64.7495 30.8957L63.1617 24.2925C63.112 24.0865 62.9824 23.9081 62.8017 23.7973C62.621 23.6874 62.4042 23.6529 62.1968 23.7021L49.3094 26.8015C48.8798 26.9046 48.6155 27.3368 48.7186 27.7664L49.5122 31.0668C49.6153 31.4968 50.0475 31.7614 50.4768 31.6576C50.9064 31.5545 51.1708 31.1223 51.0677 30.6927L50.4609 28.1699L61.7927 25.4451L63.1936 31.2702C63.2814 31.637 63.6096 31.8831 63.9707 31.8831C64.0328 31.8831 64.0956 31.8758 64.1587 31.8606C64.5883 31.7572 64.8527 31.3253 64.7495 30.8957Z" fill="white"/>
<path d="M76.3989 31.1589C76.3769 30.7337 76.0258 30.4 75.5997 30.4H40.4003C39.9742 30.4 39.6231 30.7335 39.6011 31.1589L38.0011 62.3583C37.9898 62.5772 38.069 62.7914 38.22 62.9503C38.3711 63.109 38.5807 63.1992 38.8 63.1992H77.1993C77.4185 63.1992 77.6282 63.1092 77.7801 62.9503C77.9308 62.7914 78.01 62.5774 77.999 62.3583L76.3989 31.1589ZM39.6419 61.5992L41.1599 31.9998H74.8392L76.3572 61.5992H39.6419Z" fill="white"/>
<path d="M63.9996 33.5996C62.6761 33.5996 61.5996 34.6761 61.5996 35.9996C61.5996 37.3231 62.6761 38.3995 63.9996 38.3995C65.3231 38.3995 66.3995 37.3231 66.3995 35.9996C66.3995 34.6761 65.3231 33.5996 63.9996 33.5996ZM63.9996 36.7997C63.5582 36.7997 63.1997 36.4409 63.1997 35.9998C63.1997 35.5587 63.5585 35.1999 63.9996 35.1999C64.4407 35.1999 64.7995 35.5587 64.7995 35.9998C64.7995 36.4409 64.4407 36.7997 63.9996 36.7997Z" fill="white"/>
<path d="M51.9998 33.5996C50.6763 33.5996 49.5999 34.6761 49.5999 35.9996C49.5999 37.3231 50.6763 38.3995 51.9998 38.3995C53.3233 38.3995 54.3998 37.3231 54.3998 35.9996C54.3998 34.6761 53.3233 33.5996 51.9998 33.5996ZM51.9998 36.7997C51.5587 36.7997 51.1999 36.4409 51.1999 35.9998C51.1999 35.5587 51.5587 35.1999 51.9998 35.1999C52.4409 35.1999 52.7997 35.5587 52.7997 35.9998C52.7997 36.4409 52.4409 36.7997 51.9998 36.7997Z" fill="white"/>
<path d="M63.9995 35.9996H63.9379C63.4963 35.9996 63.138 36.3579 63.138 36.7995C63.138 36.9087 63.1595 37.013 63.1996 37.1079V41.1993C63.1996 44.0664 60.8669 46.3993 57.9996 46.3993C55.1323 46.3993 52.7996 44.0666 52.7996 41.1993V36.7997C52.7996 36.3582 52.4413 35.9998 51.9997 35.9998C51.5582 35.9998 51.1998 36.3582 51.1998 36.7997V41.1996C51.1998 44.949 54.2502 47.9994 57.9996 47.9994C61.7491 47.9994 64.7994 44.949 64.7994 41.1996V36.7997C64.7994 36.3582 64.4411 35.9996 63.9995 35.9996Z" fill="white"/>
</svg>
