<svg width="129" height="115" viewBox="0 0 129 115" fill="none" xmlns="http://www.w3.org/2000/svg">
<path d="M11.78 106.16C11.78 107.36 11.4067 108.3 10.66 108.98C9.92667 109.66 8.90667 110 7.6 110H2.2V95.76H7.44C8.66667 95.76 9.66 96.1 10.42 96.78C11.18 97.46 11.56 98.3467 11.56 99.44C11.56 100.48 11.2 101.34 10.48 102.02C10.2 102.273 9.82 102.493 9.34 102.68C9.9 102.907 10.34 103.16 10.66 103.44C11.4067 104.12 11.78 105.027 11.78 106.16ZM9.82 108.26C10.4067 107.727 10.7 107.013 10.7 106.12C10.7 105.227 10.4067 104.52 9.82 104C9.24667 103.467 8.46667 103.2 7.48 103.2H3.28V109.04H7.48C8.46667 109.04 9.24667 108.78 9.82 108.26ZM9.64 101.52C10.2 101.027 10.48 100.347 10.48 99.48C10.48 98.6133 10.2 97.94 9.64 97.46C9.08 96.9667 8.30667 96.72 7.32 96.72H3.28V102.24H7.32C8.32 102.24 9.09333 102 9.64 101.52ZM16.498 105.02L21.158 100.36H22.478L17.818 104.94L22.938 110H21.538L16.498 105.02ZM16.478 100.36V110H15.458V100.36H16.478ZM31.445 100.36L26.965 112.62C26.7783 113.153 26.5583 113.527 26.305 113.74C25.8783 114.153 25.2717 114.36 24.485 114.36H24.005V113.46H24.385C24.9183 113.46 25.2983 113.367 25.525 113.18C25.765 112.993 25.9717 112.647 26.145 112.14L26.925 110L23.405 100.36H24.525L27.425 108.8L30.325 100.36H31.445ZM40.3234 108.64C39.8301 109.2 39.3434 109.587 38.8634 109.8C38.3968 110.013 37.8234 110.12 37.1434 110.12C35.8234 110.12 34.7834 109.68 34.0234 108.8C33.2768 107.92 32.9034 106.713 32.9034 105.18C32.9034 103.647 33.2768 102.44 34.0234 101.56C34.7834 100.68 35.8234 100.24 37.1434 100.24C37.8234 100.24 38.3968 100.347 38.8634 100.56C39.3434 100.773 39.8301 101.16 40.3234 101.72L39.6234 102.36C39.2101 101.907 38.8234 101.593 38.4634 101.42C38.1034 101.233 37.6634 101.14 37.1434 101.14C36.0101 101.14 35.1568 101.567 34.5834 102.42C34.1434 103.06 33.9234 103.98 33.9234 105.18C33.9234 106.38 34.1434 107.3 34.5834 107.94C35.1568 108.793 36.0101 109.22 37.1434 109.22C37.6501 109.22 38.0834 109.133 38.4434 108.96C38.8168 108.773 39.2101 108.453 39.6234 108L40.3234 108.64ZM50.6267 110H49.6067V105.46H44.3467V110H43.3267V100.36H44.3467V104.56H49.6067V100.36H50.6267V110ZM60.4986 101.3C61.2986 102.1 61.6986 103.393 61.6986 105.18C61.6986 106.967 61.2986 108.26 60.4986 109.06C59.7919 109.767 58.8986 110.12 57.8186 110.12C56.7386 110.12 55.8453 109.767 55.1386 109.06C54.3386 108.26 53.9386 106.967 53.9386 105.18C53.9386 103.393 54.3386 102.1 55.1386 101.3C55.8453 100.593 56.7386 100.24 57.8186 100.24C58.8986 100.24 59.7919 100.593 60.4986 101.3ZM59.8186 108.4C60.3919 107.827 60.6786 106.753 60.6786 105.18C60.6786 103.607 60.3919 102.533 59.8186 101.96C59.2719 101.413 58.6053 101.14 57.8186 101.14C57.0319 101.14 56.3653 101.413 55.8186 101.96C55.2453 102.533 54.9586 103.607 54.9586 105.18C54.9586 106.753 55.2453 107.827 55.8186 108.4C56.3653 108.947 57.0319 109.22 57.8186 109.22C58.6053 109.22 59.2719 108.947 59.8186 108.4ZM77.4236 110H76.4036V101.26H71.1436V110H70.1236V100.36H77.4236V110ZM87.1783 101.3C87.9783 102.1 88.3783 103.393 88.3783 105.18C88.3783 106.967 87.9783 108.26 87.1783 109.06C86.4716 109.767 85.5783 110.12 84.4983 110.12C83.4183 110.12 82.5249 109.767 81.8183 109.06C81.0183 108.26 80.6183 106.967 80.6183 105.18C80.6183 103.393 81.0183 102.1 81.8183 101.3C82.5249 100.593 83.4183 100.24 84.4983 100.24C85.5783 100.24 86.4716 100.593 87.1783 101.3ZM86.4983 108.4C87.0716 107.827 87.3583 106.753 87.3583 105.18C87.3583 103.607 87.0716 102.533 86.4983 101.96C85.9516 101.413 85.2849 101.14 84.4983 101.14C83.7116 101.14 83.0449 101.413 82.4983 101.96C81.9249 102.533 81.6383 103.607 81.6383 105.18C81.6383 106.753 81.9249 107.827 82.4983 108.4C83.0449 108.947 83.7116 109.22 84.4983 109.22C85.2849 109.22 85.9516 108.947 86.4983 108.4ZM98.8656 105.4H92.1656C92.1656 106.64 92.4323 107.587 92.9656 108.24C93.499 108.88 94.279 109.2 95.3056 109.2C95.8656 109.2 96.3456 109.113 96.7456 108.94C97.1456 108.753 97.5523 108.453 97.9656 108.04L98.7256 108.64C98.2056 109.16 97.6856 109.54 97.1656 109.78C96.6456 110.007 96.0056 110.12 95.2456 110.12C93.9123 110.12 92.8923 109.7 92.1856 108.86C91.4923 108.02 91.1456 106.793 91.1456 105.18C91.1456 103.62 91.4856 102.407 92.1656 101.54C92.8456 100.673 93.7923 100.24 95.0056 100.24C96.219 100.24 97.1656 100.653 97.8456 101.48C98.5256 102.307 98.8656 103.46 98.8656 104.94V105.4ZM97.8456 104.58C97.7923 103.753 97.679 103.147 97.5056 102.76C97.2923 102.253 96.959 101.86 96.5056 101.58C96.0656 101.287 95.5656 101.14 95.0056 101.14C94.4456 101.14 93.9456 101.287 93.5056 101.58C93.0656 101.86 92.7323 102.253 92.5056 102.76C92.3323 103.147 92.219 103.753 92.1656 104.58H97.8456ZM109.034 108.64C108.541 109.2 108.054 109.587 107.574 109.8C107.108 110.013 106.534 110.12 105.854 110.12C104.534 110.12 103.494 109.68 102.734 108.8C101.988 107.92 101.614 106.713 101.614 105.18C101.614 103.647 101.988 102.44 102.734 101.56C103.494 100.68 104.534 100.24 105.854 100.24C106.534 100.24 107.108 100.347 107.574 100.56C108.054 100.773 108.541 101.16 109.034 101.72L108.334 102.36C107.921 101.907 107.534 101.593 107.174 101.42C106.814 101.233 106.374 101.14 105.854 101.14C104.721 101.14 103.868 101.567 103.294 102.42C102.854 103.06 102.634 103.98 102.634 105.18C102.634 106.38 102.854 107.3 103.294 107.94C103.868 108.793 104.721 109.22 105.854 109.22C106.361 109.22 106.794 109.133 107.154 108.96C107.528 108.773 107.921 108.453 108.334 108L109.034 108.64ZM117.98 101.26H114.7V110H113.68V101.26H110.2V100.36H117.98V101.26ZM126.524 105.1C127.07 105.62 127.344 106.307 127.344 107.16C127.344 108.013 127.07 108.7 126.524 109.22C125.99 109.74 125.27 110 124.364 110H120.124V100.36H121.144V104.32H124.364C125.27 104.32 125.99 104.58 126.524 105.1ZM124.204 109.1C125.617 109.1 126.324 108.453 126.324 107.16C126.324 105.867 125.617 105.22 124.204 105.22H121.144V109.1H124.204Z" fill="black"/>
<rect x="25" width="80" height="80" rx="15" fill="#FCCC43"/>
<path d="M65.5 25C57.2157 25 50.5 31.7157 50.5 40C50.5 48.2843 57.2157 55 65.5 55C73.7843 55 80.5 48.2843 80.5 40C80.4905 31.7196 73.7804 25.0095 65.5 25ZM65.5 53.5C58.0442 53.5 52 47.4558 52 40C52 32.5442 58.0442 26.5 65.5 26.5C72.9558 26.5 79 32.5442 79 40C78.9913 47.4523 72.9523 53.4913 65.5 53.5Z" fill="white"/>
<path d="M86.8623 22.1425C86.1743 21.8558 85.3813 22.0135 84.8553 22.5415C83.0211 24.3663 81.993 26.8489 82 29.4362V39.25C82.004 40.2001 82.6043 41.0453 83.5 41.362V55.75C83.5 56.9927 84.5074 58 85.75 58C86.9927 58 88 56.9927 88 55.75V23.8442C88.0015 23.0986 87.5519 22.4261 86.8623 22.1425ZM86.5 55.75C86.5 56.1642 86.1642 56.5 85.75 56.5C85.3358 56.5 85 56.1642 85 55.75V41.5H86.5V55.75ZM86.5 40H84.25C83.8358 40 83.5 39.6642 83.5 39.25V29.4362C83.4944 27.2471 84.3645 25.1466 85.9165 23.6027C85.977 23.5381 86.0613 23.5009 86.1498 23.5C86.1978 23.5006 86.2451 23.5105 86.2893 23.5292C86.4199 23.5786 86.5045 23.7055 86.5 23.845V40Z" fill="white"/>
<path d="M59.5 34.75C57.8432 34.75 56.5 36.0932 56.5 37.75C56.5 39.4068 57.8432 40.75 59.5 40.75C61.1568 40.75 62.5 39.4068 62.5 37.75C62.5 36.0932 61.1568 34.75 59.5 34.75ZM59.5 39.25C58.6715 39.25 58 38.5785 58 37.75C58 36.9215 58.6715 36.25 59.5 36.25C60.3285 36.25 61 36.9215 61 37.75C61 38.5785 60.3285 39.25 59.5 39.25Z" fill="white"/>
<path d="M65.5645 35.254L64.246 33.9355C64.0878 33.7781 63.9992 33.5639 64 33.3408C63.9983 32.0487 62.9513 31.0017 61.6593 31H58.6593C58.0387 31.0016 57.444 31.2479 57.004 31.6855L54.1855 34.504C53.7451 34.942 53.4982 35.5381 53.5 36.1592V39.3407C53.4982 39.9619 53.7451 40.558 54.1855 40.996L55.504 42.3145C55.6623 42.4719 55.7509 42.6861 55.75 42.9093C55.7517 44.2013 56.7987 45.2483 58.0908 45.25H59.5908C60.2113 45.2484 60.806 45.002 61.246 44.5645L63.3145 42.496C63.4728 42.3391 63.6864 42.2507 63.9093 42.25C65.2013 42.2483 66.2483 41.2013 66.25 39.9092V36.9092C66.2518 36.2881 66.0049 35.692 65.5645 35.254ZM64.75 39.9092C64.7496 40.3734 64.3734 40.7496 63.9093 40.75C63.2887 40.7516 62.694 40.9979 62.254 41.4355L60.1855 43.504C60.0273 43.6609 59.8136 43.7493 59.5908 43.75H58.0908C57.6266 43.7496 57.2504 43.3734 57.25 42.9093C57.2518 42.2881 57.0049 41.692 56.5645 41.254L55.246 39.9355C55.0878 39.7781 54.9992 39.5639 55 39.3407V36.1592C54.9993 35.9361 55.0878 35.7219 55.246 35.5645L58.0645 32.746C58.2228 32.5891 58.4364 32.5007 58.6593 32.5H61.6593C62.1234 32.5004 62.4996 32.8766 62.5 33.3408C62.4982 33.9619 62.7451 34.558 63.1855 34.996L64.504 36.3145C64.6623 36.4719 64.7509 36.6861 64.75 36.9092V39.9092Z" fill="white"/>
<path d="M72.7802 41.7197L69.7802 38.7198C69.4872 38.4269 69.0124 38.427 68.7195 38.7199C68.579 38.8606 68.4999 39.0513 68.4999 39.25V40.75C68.4999 41.1642 68.1641 41.5 67.7499 41.5C66.5073 41.5 65.4999 42.5073 65.4999 43.75C65.4999 44.1642 65.1641 44.5 64.7499 44.5C63.5073 44.5 62.4999 45.5073 62.4999 46.75C62.4999 47.1642 62.1641 47.5 61.7499 47.5H60.2499C59.8357 47.5001 59.5 47.8359 59.5001 48.2502C59.5001 48.449 59.5792 48.6396 59.7197 48.7802L62.7197 51.7802C62.8603 51.9209 63.051 52 63.2499 52H64.7499C65.9926 52 66.9999 50.9927 66.9999 49.75C66.9999 49.3358 67.3357 49 67.7499 49C68.9926 49 69.9999 47.9927 69.9999 46.75C69.9999 46.3358 70.3357 46 70.7499 46C71.9926 46 72.9999 44.9927 72.9999 43.75V42.25C72.9999 42.0511 72.9208 41.8604 72.7802 41.7197ZM71.4999 43.75C71.4999 44.1642 71.1641 44.5 70.7499 44.5C69.5073 44.5 68.4999 45.5073 68.4999 46.75C68.4999 47.1642 68.1641 47.5 67.7499 47.5C66.5073 47.5 65.4999 48.5073 65.4999 49.75C65.4999 50.1642 65.1641 50.5 64.7499 50.5H63.5604L62.0417 48.9812C63.1621 48.8347 64 47.88 63.9999 46.75C63.9999 46.3358 64.3357 46 64.7499 46C65.9926 46 66.9999 44.9927 66.9999 43.75C66.9999 43.3358 67.3357 43 67.7499 43C68.8799 43.0001 69.8347 42.1622 69.9812 41.0418L71.4999 42.5605V43.75Z" fill="white"/>
<path d="M76.6592 35.848L76.5302 35.7198L72.7802 31.9698L69.6512 28.8415C68.5297 27.7205 66.7117 27.7207 65.5907 28.8423C64.4696 29.9637 64.47 31.7817 65.5914 32.9028L65.7204 33.031L69.4704 36.781L72.5994 39.9093C73.721 41.0303 75.5389 41.0299 76.6599 39.9085C77.781 38.787 77.7807 36.9691 76.6592 35.848ZM66.7434 29.818C66.989 29.6134 67.2983 29.5009 67.6179 29.5H67.6209C67.9843 29.5011 68.3327 29.6453 68.5907 29.9013L70.4394 31.75H66.5679C66.0829 31.168 66.1614 30.3031 66.7434 29.818ZM68.0604 33.25H71.9394L74.1894 35.5H70.3104L68.0604 33.25ZM75.5064 38.932C75.2609 39.1367 74.9515 39.2492 74.6319 39.25H74.6289C74.2654 39.2488 73.917 39.1044 73.6592 38.848L71.8104 37H75.6819C76.167 37.582 76.0884 38.4469 75.5064 38.932Z" fill="white"/>
<path d="M49 22V28H47.5V22H46V28H44.5V22H43V31.75C43.0037 32.924 43.5592 34.028 44.5 34.7305V55.75C44.5 56.9927 45.5073 58 46.75 58C47.9927 58 49 56.9927 49 55.75V34.7305C49.9408 34.028 50.4963 32.924 50.5 31.75V22H49ZM47.5 55.75C47.5 56.1642 47.1642 56.5 46.75 56.5C46.3358 56.5 46 56.1642 46 55.75V35.5H47.5V55.75ZM49 31.75C49 32.9927 47.9927 34 46.75 34C45.5073 34 44.5 32.9927 44.5 31.75V29.5H49V31.75Z" fill="white"/>
</svg>
