<svg width="120" height="116" viewBox="0 0 120 116" fill="none" xmlns="http://www.w3.org/2000/svg">
<path d="M11.4 103.88C11.4 105.68 11.3267 106.927 11.18 107.62C11.02 108.407 10.6533 109.087 10.08 109.66C9.10667 110.633 7.92 111.12 6.52 111.12C5.12 111.12 3.93333 110.633 2.96 109.66C2.37333 109.073 2 108.347 1.84 107.48C1.76 107.08 1.70667 106.567 1.68 105.94C1.65333 105.473 1.64 104.787 1.64 103.88V102.94C1.64 102.313 1.65333 101.82 1.68 101.46C1.70667 100.98 1.76 100.553 1.84 100.18C2.01333 99.3667 2.38667 98.6733 2.96 98.1C3.93333 97.1267 5.12 96.64 6.52 96.64C7.92 96.64 9.10667 97.1267 10.08 98.1C10.6267 98.6467 11 99.34 11.2 100.18C11.28 100.527 11.3333 100.927 11.36 101.38C11.3867 101.727 11.4 102.153 11.4 102.66V103.88ZM10.32 103.54C10.32 102.02 10.2467 100.947 10.1 100.32C9.96667 99.6933 9.67333 99.1533 9.22 98.7C8.48667 97.9667 7.58667 97.6 6.52 97.6C5.45333 97.6 4.55333 97.9667 3.82 98.7C3.35333 99.1667 3.04667 99.7933 2.9 100.58C2.83333 100.953 2.78667 101.42 2.76 101.98C2.73333 102.433 2.72 103.067 2.72 103.88V104.5C2.72 105.86 2.79333 106.847 2.94 107.46C3.08667 108.087 3.38 108.62 3.82 109.06C4.55333 109.793 5.45333 110.16 6.52 110.16C7.58667 110.16 8.48667 109.793 9.22 109.06C9.71333 108.567 10.0333 107.913 10.18 107.1C10.2333 106.753 10.2733 106.327 10.3 105.82C10.3133 105.5 10.32 105 10.32 104.32V103.54ZM22.2469 106.18C22.2469 107.993 21.8535 109.293 21.0669 110.08C20.4002 110.773 19.5202 111.12 18.4269 111.12C16.4002 111.12 15.1669 110.133 14.7269 108.16C14.6202 107.68 14.5535 106.973 14.5269 106.04V103.86C14.5269 102.9 14.5402 102.153 14.5669 101.62C14.5935 100.98 14.6469 100.453 14.7269 100.04C14.8735 99.24 15.1935 98.5933 15.6869 98.1C15.9935 97.7933 16.4135 97.5333 16.9469 97.32C17.3869 97.16 17.9135 97.0267 18.5269 96.92C18.9669 96.8533 19.5069 96.8 20.1469 96.76L21.5469 96.66V97.64L20.6869 97.7H20.3669C19.7935 97.74 19.3202 97.78 18.9469 97.82C18.4135 97.9 17.9535 98 17.5669 98.12C17.1135 98.28 16.7535 98.4933 16.4869 98.76C16.0735 99.1733 15.8002 99.7333 15.6669 100.44C15.6002 100.747 15.5535 101.113 15.5269 101.54C15.5135 101.86 15.5069 102.28 15.5069 102.8C15.7202 102.36 16.1269 101.993 16.7269 101.7C17.3002 101.407 17.8869 101.26 18.4869 101.26C19.5535 101.26 20.3869 101.553 20.9869 102.14C21.8269 102.94 22.2469 104.287 22.2469 106.18ZM21.2269 106.28C21.2269 104.627 20.9469 103.52 20.3869 102.96C19.8802 102.427 19.2269 102.16 18.4269 102.16C17.6535 102.16 17.0002 102.427 16.4669 102.96C15.8535 103.6 15.5469 104.693 15.5469 106.24C15.5469 107.733 15.8535 108.793 16.4669 109.42C17.0002 109.953 17.6535 110.22 18.4269 110.22C19.2269 110.22 19.8802 109.953 20.3869 109.42C20.9469 108.86 21.2269 107.813 21.2269 106.28ZM33.0333 106.2C33.0333 109.48 31.8133 111.12 29.3733 111.12C28.6799 111.12 28.1199 111.007 27.6933 110.78C27.3199 110.593 26.9466 110.253 26.5733 109.76V115.6H25.5533V101.36H26.5733V102.6C27.2933 101.693 28.2199 101.24 29.3533 101.24C31.8066 101.24 33.0333 102.893 33.0333 106.2ZM32.0133 106.2C32.0133 103.493 31.1066 102.14 29.2933 102.14C27.4799 102.14 26.5733 103.487 26.5733 106.18C26.5733 108.873 27.4799 110.22 29.2933 110.22C31.1066 110.22 32.0133 108.88 32.0133 106.2ZM42.0141 111V110.04C41.2941 110.76 40.3141 111.12 39.0741 111.12C37.7541 111.12 36.8074 110.827 36.2341 110.24C35.7674 109.747 35.5341 109.12 35.5341 108.36C35.5341 106.507 36.6541 105.58 38.8941 105.58H42.0141V104.5C42.0141 102.927 41.1074 102.14 39.2941 102.14C38.0807 102.14 37.1941 102.547 36.6341 103.36L35.8941 102.72C36.6007 101.733 37.7341 101.24 39.2941 101.24C41.7874 101.24 43.0341 102.293 43.0341 104.4V111H42.0141ZM42.0141 106.4H39.0141C37.3741 106.4 36.5541 107.047 36.5541 108.34C36.5541 109.593 37.3941 110.22 39.0741 110.22C39.6074 110.22 40.0341 110.18 40.3541 110.1C40.7941 109.993 41.1674 109.787 41.4741 109.48C41.8341 109.133 42.0141 108.52 42.0141 107.64V106.4ZM53.0023 108.34C53.0023 109.167 52.6357 109.84 51.9023 110.36C51.2223 110.853 50.3757 111.1 49.3623 111.1C47.8957 111.1 46.6557 110.64 45.6423 109.72L46.3423 109.02C47.1423 109.807 48.129 110.2 49.3023 110.2C49.9957 110.2 50.609 110.033 51.1423 109.7C51.729 109.34 52.0223 108.88 52.0223 108.32C52.0223 107.093 51.2823 106.48 49.8023 106.48H48.4223V105.62H49.8423C51.1757 105.62 51.8423 105.033 51.8423 103.86C51.8423 102.7 51.049 102.12 49.4623 102.12C48.4357 102.12 47.509 102.407 46.6823 102.98L46.0823 102.26C47.0557 101.58 48.1823 101.24 49.4623 101.24C50.449 101.24 51.2557 101.467 51.8823 101.92C52.5223 102.387 52.8423 103.027 52.8423 103.84C52.8423 104.973 52.3023 105.7 51.2223 106.02C52.409 106.353 53.0023 107.127 53.0023 108.34ZM63.5736 106.12C63.5736 107.933 63.1736 109.247 62.3736 110.06C61.6669 110.767 60.7736 111.12 59.6936 111.12C58.6136 111.12 57.7203 110.767 57.0136 110.06C56.2136 109.26 55.8136 107.967 55.8136 106.18C55.8136 104.393 56.2136 103.1 57.0136 102.3C57.7203 101.593 58.6136 101.24 59.6936 101.24C62.2803 101.24 63.5736 102.867 63.5736 106.12ZM62.5536 106.22C62.5536 104.633 62.2669 103.547 61.6936 102.96C61.1736 102.413 60.5069 102.14 59.6936 102.14C58.8803 102.14 58.2136 102.413 57.6936 102.96C57.1203 103.547 56.8336 104.62 56.8336 106.18C56.8336 107.74 57.1203 108.813 57.6936 109.4C58.2136 109.947 58.8803 110.22 59.6936 110.22C60.5069 110.22 61.1736 109.947 61.6936 109.4C62.2669 108.813 62.5536 107.753 62.5536 106.22ZM74.2209 108.38C74.2209 110.127 73.2743 111 71.3809 111H66.9009V101.36H71.2809C73.1343 101.36 74.0609 102.187 74.0609 103.84C74.0609 104.933 73.5143 105.653 72.4209 106C73.6209 106.387 74.2209 107.18 74.2209 108.38ZM73.0409 103.9C73.0409 102.78 72.3809 102.22 71.0609 102.22H67.9209V105.58H71.0609C72.3809 105.58 73.0409 105.02 73.0409 103.9ZM73.2009 108.3C73.2009 107.06 72.5209 106.44 71.1609 106.44H67.9209V110.14H71.1609C72.5209 110.14 73.2009 109.527 73.2009 108.3ZM83.2641 111V110.04C82.5441 110.76 81.5641 111.12 80.3241 111.12C79.0041 111.12 78.0574 110.827 77.4841 110.24C77.0174 109.747 76.7841 109.12 76.7841 108.36C76.7841 106.507 77.9041 105.58 80.1441 105.58H83.2641V104.5C83.2641 102.927 82.3574 102.14 80.5441 102.14C79.3307 102.14 78.4441 102.547 77.8841 103.36L77.1441 102.72C77.8507 101.733 78.9841 101.24 80.5441 101.24C83.0374 101.24 84.2841 102.293 84.2841 104.4V111H83.2641ZM83.2641 106.4H80.2641C78.6241 106.4 77.8041 107.047 77.8041 108.34C77.8041 109.593 78.6441 110.22 80.3241 110.22C80.8574 110.22 81.2841 110.18 81.6041 110.1C82.0441 109.993 82.4174 109.787 82.7241 109.48C83.0841 109.133 83.2641 108.52 83.2641 107.64V106.4ZM94.3723 111V106.44H89.1123V111H88.0923V101.36H89.1123V105.58H94.3723V101.36H95.3923V111H94.3723ZM105.824 111V102.84L100.284 111H99.2642V101.36H100.284V109.52L105.824 101.36H106.844V111H105.824ZM111.189 106.4C111.229 107.307 111.342 107.987 111.529 108.44C112.009 109.613 112.949 110.2 114.349 110.2C114.856 110.2 115.309 110.12 115.709 109.96C116.056 109.813 116.482 109.507 116.989 109.04L117.749 109.64C117.162 110.213 116.622 110.6 116.129 110.8C115.622 111.013 115.016 111.12 114.309 111.12C111.549 111.12 110.169 109.453 110.169 106.12C110.169 104.6 110.516 103.407 111.209 102.54C111.889 101.673 112.829 101.24 114.029 101.24C115.229 101.24 116.176 101.66 116.869 102.5C117.549 103.327 117.889 104.473 117.889 105.94V106.4H111.189ZM116.869 105.58C116.829 104.927 116.769 104.467 116.689 104.2C116.289 102.827 115.402 102.14 114.029 102.14C112.842 102.14 112.009 102.68 111.529 103.76C111.342 104.2 111.229 104.807 111.189 105.58H116.869Z" fill="black"/>
<path d="M0 113.7H119.249V114.72H0V113.7Z" fill="black"/>
<rect x="20" width="80" height="80" rx="15" fill="#1CB60E"/>
<path d="M72.4531 27.1409H71.0469V25.7346C71.0469 25.4878 70.9168 25.2586 70.7059 25.132L70.2045 24.8311C69.3608 24.3249 68.4636 23.9135 67.5312 23.6042V18.7034C67.5312 18.4439 67.3885 18.2056 67.16 18.0832C66.9322 17.9609 66.6537 17.9749 66.4386 18.1184L56.2616 24.9028L56.142 24.8311C54.0608 23.5824 51.6779 22.9221 49.25 22.9221C46.8221 22.9221 44.4392 23.5824 42.358 24.8311L41.8566 25.132C41.6457 25.2586 41.5156 25.4878 41.5156 25.7346V27.1409H40.1094C38.9464 27.1409 38 28.0873 38 29.2503V55.2659C38 56.4289 38.9464 57.3753 40.1094 57.3753H72.4531C73.6161 57.3753 74.5625 56.4289 74.5625 55.2659V29.2503C74.5625 28.0873 73.6161 27.1409 72.4531 27.1409ZM67.2184 47.4134C67.4138 47.2826 67.5312 47.0632 67.5312 46.8284V25.0948C68.2077 25.3493 68.8602 25.6643 69.4803 26.0363L69.6406 26.1326V52.6362C67.6979 51.5949 65.5238 51.0471 63.3125 51.0471C62.7395 51.0471 62.1685 51.0837 61.6032 51.1568L67.2184 47.4134ZM56.9844 26.1108L66.125 20.0168V46.4515L56.9844 52.5455V26.1108ZM42.9219 26.1326L43.0822 26.0363C44.9441 24.919 47.0773 24.3284 49.25 24.3284C51.4227 24.3284 53.5559 24.919 55.4178 26.037L55.5781 26.1326V52.6362C53.6354 51.5949 51.4613 51.0471 49.25 51.0471C47.0387 51.0471 44.8646 51.5949 42.9219 52.6362V26.1326ZM73.1562 55.2659C73.1562 55.6533 72.8413 55.969 72.4531 55.969H40.1094C39.7213 55.969 39.4062 55.6533 39.4062 55.2659V29.2503C39.4062 28.8628 39.7213 28.5471 40.1094 28.5471H41.5156V53.8596C41.5156 54.1128 41.6513 54.3469 41.8721 54.4714C42.0922 54.5965 42.3629 54.5937 42.5809 54.4622L43.0822 54.1613C44.9441 53.044 47.0773 52.4534 49.25 52.4534C51.4227 52.4534 53.5559 53.044 55.4178 54.162L55.9177 54.4615C55.9212 54.4636 55.9248 54.4657 55.9283 54.4678H55.929C55.9311 54.4714 55.9304 54.4692 55.9311 54.4692C55.9782 54.4967 56.0281 54.5178 56.0788 54.5325H56.0795H56.0802H56.0809C56.0802 54.5325 56.0823 54.5332 56.0823 54.5325H56.083H56.0837C56.1512 54.5522 56.2053 54.5571 56.2904 54.5606H56.2918C56.2918 54.5606 56.2925 54.5606 56.2932 54.5606C56.2939 54.5606 56.2946 54.5606 56.2946 54.5606H56.2953H56.296H56.2967H56.2974C56.3741 54.5592 56.4507 54.5452 56.5231 54.5178H56.5245H56.5252H56.5259H56.5266H56.5273H56.528H56.5287C56.5688 54.503 56.6075 54.484 56.6448 54.4615L57.1447 54.1613C59.0066 53.044 61.1398 52.4534 63.3125 52.4534C65.4852 52.4534 67.6184 53.044 69.4803 54.162L69.9816 54.4629C70.0934 54.5297 70.2186 54.5628 70.3438 54.5628C70.4633 54.5628 70.5828 54.5325 70.6904 54.4714C70.9112 54.3469 71.0469 54.1128 71.0469 53.8596V28.5471H72.4531C72.8413 28.5471 73.1562 28.8628 73.1562 29.2503V55.2659Z" fill="white"/>
<path d="M44.3281 30.6562H54.1719V32.0625H44.3281V30.6562Z" fill="white"/>
<path d="M44.3281 41.9062H54.1719V43.3125H44.3281V41.9062Z" fill="white"/>
<path d="M44.3281 33.4688H54.1719V34.875H44.3281V33.4688Z" fill="white"/>
<path d="M44.3281 36.2812H47.8438V37.6875H44.3281V36.2812Z" fill="white"/>
<path d="M50.6562 36.2812H54.1719V37.6875H50.6562V36.2812Z" fill="white"/>
<path d="M44.3281 39.0938H47.8438V40.5H44.3281V39.0938Z" fill="white"/>
<path d="M50.6562 39.0938H54.1719V40.5H50.6562V39.0938Z" fill="white"/>
<path d="M58.738 28.64L63.6584 25.8283L64.3559 27.049L59.4355 29.8606L58.738 28.64Z" fill="white"/>
<path d="M58.738 32.1549L63.6584 29.3433L64.3559 30.5639L59.4355 33.3755L58.738 32.1549Z" fill="white"/>
<path d="M58.7373 35.6698L63.6576 32.8581L64.3551 34.0788L59.4348 36.8904L58.7373 35.6698Z" fill="white"/>
<path d="M81.5938 20.8125C81.5938 19.2614 80.3323 18 78.7812 18C77.4509 18 76.3407 18.9302 76.0489 20.1727C74.4078 20.468 73.1562 21.9002 73.1562 23.625V25.7344H74.5625V23.625C74.5625 22.7095 75.1524 21.9361 75.9688 21.645V55.2656C75.9688 55.3437 75.9898 55.4154 76.013 55.4857L76.0053 55.4885L77.4116 59.7073C77.5072 59.9941 77.7751 60.1875 78.0781 60.1875V61.5938H79.4844V60.1875C79.7874 60.1875 80.0553 59.9941 80.1509 59.7066L81.5572 55.4878L81.5495 55.485C81.5727 55.4154 81.5938 55.3437 81.5938 55.2656V20.8125ZM77.375 20.8125C77.375 20.037 78.0057 19.4062 78.7812 19.4062C79.5568 19.4062 80.1875 20.037 80.1875 20.8125V54.5625H77.375V20.8125ZM77.6471 55.9688H79.9154L78.9774 58.7812H78.5844L77.6471 55.9688Z" fill="white"/>
</svg>
