<svg width="80" height="115" viewBox="0 0 80 115" fill="none" xmlns="http://www.w3.org/2000/svg">
<path d="M12 110H10.48L3.4 102.58L10.02 95.76H11.46L4.7 102.56L12 110ZM2.3 110V95.76H3.38V110H2.3ZM19.6392 101.3C20.4392 102.1 20.8392 103.393 20.8392 105.18C20.8392 106.967 20.4392 108.26 19.6392 109.06C18.9326 109.767 18.0392 110.12 16.9592 110.12C15.8792 110.12 14.9859 109.767 14.2792 109.06C13.4792 108.26 13.0792 106.967 13.0792 105.18C13.0792 103.393 13.4792 102.1 14.2792 101.3C14.9859 100.593 15.8792 100.24 16.9592 100.24C18.0392 100.24 18.9326 100.593 19.6392 101.3ZM18.9592 108.4C19.5326 107.827 19.8192 106.753 19.8192 105.18C19.8192 103.607 19.5326 102.533 18.9592 101.96C18.4126 101.413 17.7459 101.14 16.9592 101.14C16.1726 101.14 15.5059 101.413 14.9592 101.96C14.3859 102.533 14.0992 103.607 14.0992 105.18C14.0992 106.753 14.3859 107.827 14.9592 108.4C15.5059 108.947 16.1726 109.22 16.9592 109.22C17.7459 109.22 18.4126 108.947 18.9592 108.4ZM33.0666 101.6C33.9332 102.44 34.3666 103.633 34.3666 105.18C34.3666 106.727 33.9332 107.92 33.0666 108.76C32.2132 109.6 30.9932 110.053 29.4066 110.12V114.6H28.3866V110.12C26.7999 110.053 25.5732 109.6 24.7066 108.76C23.8532 107.92 23.4266 106.727 23.4266 105.18C23.4266 103.633 23.8532 102.44 24.7066 101.6C25.5732 100.76 26.7999 100.307 28.3866 100.24V95.76H29.4066V100.24C30.9932 100.307 32.2132 100.76 33.0666 101.6ZM28.3866 109.22V101.14C27.1066 101.18 26.1266 101.567 25.4466 102.3C24.7799 103.02 24.4466 103.98 24.4466 105.18C24.4466 106.38 24.7799 107.347 25.4466 108.08C26.1266 108.8 27.1066 109.18 28.3866 109.22ZM32.3266 108.08C33.0066 107.347 33.3466 106.38 33.3466 105.18C33.3466 103.98 33.0066 103.02 32.3266 102.3C31.6599 101.567 30.6866 101.18 29.4066 101.14V109.22C30.6866 109.18 31.6599 108.8 32.3266 108.08ZM44.6664 105.4H37.9664C37.9664 106.64 38.2331 107.587 38.7664 108.24C39.2997 108.88 40.0797 109.2 41.1064 109.2C41.6664 109.2 42.1464 109.113 42.5464 108.94C42.9464 108.753 43.3531 108.453 43.7664 108.04L44.5264 108.64C44.0064 109.16 43.4864 109.54 42.9664 109.78C42.4464 110.007 41.8064 110.12 41.0464 110.12C39.7131 110.12 38.6931 109.7 37.9864 108.86C37.2931 108.02 36.9464 106.793 36.9464 105.18C36.9464 103.62 37.2864 102.407 37.9664 101.54C38.6464 100.673 39.5931 100.24 40.8064 100.24C42.0197 100.24 42.9664 100.653 43.6464 101.48C44.3264 102.307 44.6664 103.46 44.6664 104.94V105.4ZM43.6464 104.58C43.5931 103.753 43.4797 103.147 43.3064 102.76C43.0931 102.253 42.7597 101.86 42.3064 101.58C41.8664 101.287 41.3664 101.14 40.8064 101.14C40.2464 101.14 39.7464 101.287 39.3064 101.58C38.8664 101.86 38.5331 102.253 38.3064 102.76C38.1331 103.147 38.0197 103.753 37.9664 104.58H43.6464ZM54.5752 96.06C54.4418 97.66 53.5085 98.46 51.7752 98.46C50.0418 98.46 49.1085 97.66 48.9752 96.06H49.9952C50.1018 97.1267 50.6952 97.66 51.7752 97.66C52.8552 97.66 53.4485 97.1267 53.5552 96.06H54.5752ZM55.5552 110H54.5352V101.84L48.9952 110H47.9752V100.36H48.9952V108.52L54.5352 100.36H55.5552V110ZM66.74 110H65.72V105.46H60.46V110H59.44V100.36H60.46V104.56H65.72V100.36H66.74V110ZM77.2119 110H76.1919V106.08H73.4919L71.2119 110H70.0119L72.3719 106.04C71.6252 105.933 71.0319 105.627 70.5919 105.12C70.1652 104.6 69.9519 103.96 69.9519 103.2C69.9519 102.347 70.2185 101.66 70.7519 101.14C71.2985 100.62 72.0252 100.36 72.9319 100.36H77.2119V110ZM76.1919 105.22V101.22H73.1319C72.4385 101.22 71.9052 101.393 71.5319 101.74C71.1719 102.087 70.9919 102.58 70.9919 103.22C70.9919 103.86 71.1719 104.353 71.5319 104.7C71.9052 105.047 72.4385 105.22 73.1319 105.22H76.1919Z" fill="black"/>
<rect width="80" height="80" rx="15" fill="#F95F09"/>
<path d="M62.1211 35.1494H54.9141V33.289C54.9141 32.8036 54.5205 32.4101 54.0352 32.4101H35.0508C34.5654 32.4101 34.1719 32.8036 34.1719 33.289C34.1719 33.7745 34.5654 34.1679 35.0508 34.1679H53.1562V40.9062C53.1562 46.8254 49.996 52.3268 44.8929 55.3202H28.0211C22.9181 52.3269 19.7578 46.8254 19.7578 40.9062V34.168H25.6465C26.1318 34.168 26.5254 33.7745 26.5254 33.2891C26.5254 32.8037 26.1318 32.4102 25.6465 32.4102H18.8789C18.3936 32.4102 18 32.8037 18 33.2891V40.9062C18 44.2285 18.893 47.4861 20.5824 50.3266C21.7217 52.2424 23.2 53.9341 24.9312 55.3203H18.8789C18.3936 55.3203 18 55.7138 18 56.1992C18 59.3978 20.6022 62 23.8008 62H51.2227C54.4213 62 57.0234 59.3978 57.0234 56.1992C57.0234 55.7138 56.6299 55.3203 56.1445 55.3203H47.9828C49.5762 54.0445 50.9546 52.5093 52.0523 50.7793H54.5332C59.2018 50.7793 63 46.9811 63 42.3125V36.0283C63 35.5429 62.6065 35.1494 62.1211 35.1494ZM55.1694 57.0781C54.767 58.8862 53.1502 60.2422 51.2227 60.2422H23.8008C21.8733 60.2422 20.2565 58.8862 19.8541 57.0781H27.7857H45.1284H55.1694ZM54.9141 40.9062V40.4228H57.7266V42.3125C57.7266 44.0733 56.294 45.5058 54.5332 45.5058H54.3336C54.7173 44.0112 54.9141 42.4659 54.9141 40.9062ZM61.2422 42.3125C61.2422 46.0118 58.2325 49.0214 54.5332 49.0214H53.0373C53.318 48.4483 53.5686 47.8616 53.7877 47.2636H54.5332C57.2634 47.2636 59.4844 45.0426 59.4844 42.3125V39.5439C59.4844 39.0585 59.0908 38.665 58.6055 38.665H54.9141V36.9072H61.2422V42.3125Z" fill="white"/>
<path d="M37.2961 21.8641L36.8388 21.2899C36.1675 20.4472 36.1666 19.2692 36.8365 18.4253C37.1383 18.0451 37.0747 17.4923 36.6944 17.1905C36.3141 16.8886 35.7614 16.9524 35.4596 17.3326C34.2782 18.8211 34.2799 20.8987 35.4639 22.3851L35.9212 22.9593C36.7984 24.0606 36.7997 25.6 35.9243 26.7029L35.4557 27.2934C35.1539 27.6736 35.2175 28.2264 35.5977 28.5282C35.7594 28.6564 35.9521 28.7187 36.1435 28.7187C36.4025 28.7187 36.659 28.6048 36.8326 28.3861L37.3012 27.7957C38.6882 26.0483 38.6861 23.6091 37.2961 21.8641Z" fill="white"/>
<path d="M42.168 23.8403L41.7107 23.2662C41.0394 22.4234 41.0384 21.2454 41.7083 20.4015C42.0101 20.0212 41.9465 19.4684 41.5663 19.1667C41.186 18.8648 40.6332 18.9285 40.3314 19.3087C39.15 20.7972 39.1517 22.8749 40.3357 24.3614L40.793 24.9356C41.6702 26.0369 41.6715 27.5764 40.7961 28.6793L40.3275 29.2696C40.0257 29.6498 40.0894 30.2027 40.4696 30.5044C40.6312 30.6326 40.8239 30.6948 41.0154 30.6948C41.2743 30.6948 41.5309 30.5809 41.7044 30.3623L42.1729 29.7719C43.5599 28.0246 43.5579 25.5854 42.168 23.8403Z" fill="white"/>
<path d="M32.4246 23.8404L31.9673 23.2662C31.296 22.4236 31.295 21.2455 31.9648 20.4015C32.2666 20.0213 32.203 19.4685 31.8228 19.1667C31.4425 18.8649 30.8897 18.9287 30.5879 19.3087C29.4066 20.7972 29.4083 22.875 30.5923 24.3614L31.0496 24.9356C31.9268 26.0369 31.9281 27.5764 31.0528 28.6792L30.5841 29.2695C30.2823 29.6497 30.3459 30.2026 30.7261 30.5044C30.8877 30.6326 31.0804 30.6949 31.2719 30.6949C31.5308 30.6949 31.7874 30.581 31.9609 30.3624L32.4296 29.772C33.8165 28.0246 33.8145 25.5855 32.4246 23.8404Z" fill="white"/>
<path d="M31.2083 32.6674C31.0448 32.5039 30.8181 32.4099 30.5869 32.4099C30.3558 32.4099 30.129 32.5039 29.9655 32.6674C29.8021 32.8317 29.708 33.0576 29.708 33.2888C29.708 33.5199 29.8021 33.7467 29.9655 33.911C30.129 34.0745 30.3558 34.1677 30.5869 34.1677C30.8181 34.1677 31.0448 34.0745 31.2083 33.911C31.3726 33.7467 31.4658 33.5208 31.4658 33.2888C31.4658 33.0576 31.3726 32.8308 31.2083 32.6674Z" fill="white"/>
<path d="M49.8164 40.0273C49.3311 40.0273 48.9375 40.4208 48.9375 40.9063C48.9375 44.1687 47.6142 47.3748 45.3069 49.7026C44.9652 50.0473 44.9677 50.6038 45.3124 50.9456C45.4838 51.1155 45.7075 51.2003 45.9312 51.2003C46.1574 51.2002 46.3836 51.1133 46.5555 50.9399C49.1864 48.2856 50.6953 44.6285 50.6953 40.9063C50.6953 40.4208 50.3017 40.0273 49.8164 40.0273Z" fill="white"/>
<path d="M43.8297 52.0881C43.5911 51.6653 43.0551 51.516 42.6323 51.7544L42.6123 51.7657C42.1895 52.0043 42.0401 52.5403 42.2786 52.9631C42.4401 53.2494 42.738 53.4104 43.0449 53.4104C43.1911 53.4104 43.3395 53.3737 43.4759 53.2968L43.4959 53.2855C43.9188 53.0469 44.0681 52.5109 43.8297 52.0881Z" fill="white"/>
</svg>
