<svg width="177" height="115" viewBox="0 0 177 115" fill="none" xmlns="http://www.w3.org/2000/svg">
<path d="M12 110H10.48L3.4 102.58L10.02 95.76H11.46L4.7 102.56L12 110ZM2.3 110V95.76H3.38V110H2.3ZM20.1722 101.08C20.9989 101.907 21.4122 103.273 21.4122 105.18C21.4122 107.087 20.9989 108.453 20.1722 109.28C19.6122 109.84 18.8255 110.12 17.8122 110.12C17.2122 110.12 16.6855 110.027 16.2322 109.84C15.7789 109.64 15.3522 109.28 14.9522 108.76V114.6H13.9322V100.36H14.9522V101.6C15.3522 101.08 15.7789 100.727 16.2322 100.54C16.6855 100.34 17.2122 100.24 17.8122 100.24C18.8255 100.24 19.6122 100.52 20.1722 101.08ZM20.2922 106.68C20.3589 106.253 20.3922 105.753 20.3922 105.18C20.3922 104.607 20.3589 104.107 20.2922 103.68C20.2255 103.253 20.0989 102.833 19.9122 102.42C19.7389 102.007 19.4589 101.693 19.0722 101.48C18.6989 101.253 18.2322 101.14 17.6722 101.14C17.1122 101.14 16.6389 101.253 16.2522 101.48C15.8789 101.693 15.5989 102.007 15.4122 102.42C15.2389 102.833 15.1189 103.253 15.0522 103.68C14.9855 104.107 14.9522 104.607 14.9522 105.18C14.9522 105.753 14.9855 106.253 15.0522 106.68C15.1189 107.107 15.2389 107.527 15.4122 107.94C15.5989 108.353 15.8789 108.673 16.2522 108.9C16.6389 109.113 17.1122 109.22 17.6722 109.22C18.2322 109.22 18.6989 109.113 19.0722 108.9C19.4589 108.673 19.7389 108.353 19.9122 107.94C20.0989 107.527 20.2255 107.107 20.2922 106.68ZM31.413 110H30.393V109.04C29.993 109.44 29.573 109.72 29.133 109.88C28.7063 110.04 28.1463 110.12 27.453 110.12C26.133 110.12 25.1863 109.827 24.613 109.24C24.1463 108.747 23.913 108.12 23.913 107.36C23.913 106.48 24.2063 105.8 24.793 105.32C25.393 104.827 26.2196 104.58 27.273 104.58H30.393V103.5C30.393 102.713 30.1796 102.127 29.753 101.74C29.3263 101.34 28.633 101.14 27.673 101.14C26.993 101.14 26.453 101.233 26.053 101.42C25.6663 101.607 25.3196 101.92 25.013 102.36L24.273 101.72C24.673 101.173 25.133 100.793 25.653 100.58C26.1863 100.353 26.8596 100.24 27.673 100.24C30.1663 100.24 31.413 101.293 31.413 103.4V110ZM30.393 106.64V105.4H27.393C25.753 105.4 24.933 106.047 24.933 107.34C24.933 107.98 25.133 108.453 25.533 108.76C25.9463 109.067 26.5863 109.22 27.453 109.22C28.5463 109.22 29.3463 108.973 29.853 108.48C30.213 108.133 30.393 107.52 30.393 106.64ZM42.0813 108.64C41.5879 109.2 41.1013 109.587 40.6213 109.8C40.1546 110.013 39.5813 110.12 38.9013 110.12C37.5813 110.12 36.5413 109.68 35.7812 108.8C35.0346 107.92 34.6613 106.713 34.6613 105.18C34.6613 103.647 35.0346 102.44 35.7812 101.56C36.5413 100.68 37.5813 100.24 38.9013 100.24C39.5813 100.24 40.1546 100.347 40.6213 100.56C41.1013 100.773 41.5879 101.16 42.0813 101.72L41.3813 102.36C40.9679 101.907 40.5813 101.593 40.2213 101.42C39.8613 101.233 39.4213 101.14 38.9013 101.14C37.7679 101.14 36.9146 101.567 36.3413 102.42C35.9013 103.06 35.6813 103.98 35.6813 105.18C35.6813 106.38 35.9013 107.3 36.3413 107.94C36.9146 108.793 37.7679 109.22 38.9013 109.22C39.4079 109.22 39.8413 109.133 40.2013 108.96C40.5746 108.773 40.9679 108.453 41.3813 108L42.0813 108.64ZM50.7916 101.3C51.5916 102.1 51.9916 103.393 51.9916 105.18C51.9916 106.967 51.5916 108.26 50.7916 109.06C50.0849 109.767 49.1916 110.12 48.1116 110.12C47.0316 110.12 46.1382 109.767 45.4316 109.06C44.6316 108.26 44.2316 106.967 44.2316 105.18C44.2316 103.393 44.6316 102.1 45.4316 101.3C46.1382 100.593 47.0316 100.24 48.1116 100.24C49.1916 100.24 50.0849 100.593 50.7916 101.3ZM50.1116 108.4C50.6849 107.827 50.9716 106.753 50.9716 105.18C50.9716 103.607 50.6849 102.533 50.1116 101.96C49.5649 101.413 48.8982 101.14 48.1116 101.14C47.3249 101.14 46.6582 101.413 46.1116 101.96C45.5382 102.533 45.2516 103.607 45.2516 105.18C45.2516 106.753 45.5382 107.827 46.1116 108.4C46.6582 108.947 47.3249 109.22 48.1116 109.22C48.8982 109.22 49.5649 108.947 50.1116 108.4ZM61.2613 101.26H57.9813V110H56.9613V101.26H53.4813V100.36H61.2613V101.26ZM69.8895 110H68.8695V109.04C68.4695 109.44 68.0495 109.72 67.6095 109.88C67.1829 110.04 66.6229 110.12 65.9295 110.12C64.6095 110.12 63.6629 109.827 63.0895 109.24C62.6229 108.747 62.3895 108.12 62.3895 107.36C62.3895 106.48 62.6829 105.8 63.2695 105.32C63.8695 104.827 64.6962 104.58 65.7495 104.58H68.8695V103.5C68.8695 102.713 68.6562 102.127 68.2295 101.74C67.8029 101.34 67.1095 101.14 66.1495 101.14C65.4695 101.14 64.9295 101.233 64.5295 101.42C64.1429 101.607 63.7962 101.92 63.4895 102.36L62.7495 101.72C63.1495 101.173 63.6095 100.793 64.1295 100.58C64.6629 100.353 65.3362 100.24 66.1495 100.24C68.6429 100.24 69.8895 101.293 69.8895 103.4V110ZM68.8695 106.64V105.4H65.8695C64.2295 105.4 63.4095 106.047 63.4095 107.34C63.4095 107.98 63.6095 108.453 64.0095 108.76C64.4229 109.067 65.0629 109.22 65.9295 109.22C67.0229 109.22 67.8229 108.973 68.3295 108.48C68.6895 108.133 68.8695 107.52 68.8695 106.64ZM86.3755 110H85.3555V101.84L79.8155 110H78.7955V100.36H79.8155V108.52L85.3555 100.36H86.3755V110ZM101.518 107.34C101.518 108.167 101.165 108.833 100.458 109.34C99.7513 109.847 98.8913 110.1 97.878 110.1C97.0913 110.1 96.4113 110 95.838 109.8C95.278 109.587 94.718 109.227 94.158 108.72L94.858 108.02C95.3113 108.46 95.7513 108.767 96.178 108.94C96.618 109.113 97.1646 109.2 97.818 109.2C98.5113 109.2 99.138 109.027 99.698 108.68C100.258 108.333 100.538 107.88 100.538 107.32C100.538 106.733 100.331 106.28 99.918 105.96C99.518 105.64 98.9846 105.48 98.318 105.48H96.938V104.62H98.358C98.958 104.62 99.438 104.467 99.798 104.16C100.171 103.853 100.358 103.42 100.358 102.86C100.358 102.313 100.145 101.893 99.718 101.6C99.2913 101.293 98.7113 101.14 97.978 101.14C96.938 101.14 96.0113 101.42 95.198 101.98L94.598 101.26C95.5713 100.58 96.698 100.24 97.978 100.24C98.9646 100.24 99.7713 100.473 100.398 100.94C101.038 101.393 101.358 102.027 101.358 102.84C101.358 103.347 101.218 103.8 100.938 104.2C100.658 104.587 100.258 104.86 99.738 105.02C100.285 105.167 100.718 105.453 101.038 105.88C101.358 106.293 101.518 106.78 101.518 107.34ZM113.152 113H112.132V110H104.372V113H103.352V109.1H104.532C104.985 108.46 105.332 107.713 105.572 106.86C105.812 105.993 105.932 104.76 105.932 103.16V100.36H111.652V109.1H113.152V113ZM110.632 109.1V101.26H106.912V103.42C106.912 106.06 106.505 107.953 105.692 109.1H110.632ZM121.514 101.3C122.314 102.1 122.714 103.393 122.714 105.18C122.714 106.967 122.314 108.26 121.514 109.06C120.808 109.767 119.914 110.12 118.834 110.12C117.754 110.12 116.861 109.767 116.154 109.06C115.354 108.26 114.954 106.967 114.954 105.18C114.954 103.393 115.354 102.1 116.154 101.3C116.861 100.593 117.754 100.24 118.834 100.24C119.914 100.24 120.808 100.593 121.514 101.3ZM120.834 108.4C121.408 107.827 121.694 106.753 121.694 105.18C121.694 103.607 121.408 102.533 120.834 101.96C120.288 101.413 119.621 101.14 118.834 101.14C118.048 101.14 117.381 101.413 116.834 101.96C116.261 102.533 115.974 103.607 115.974 105.18C115.974 106.753 116.261 107.827 116.834 108.4C117.381 108.947 118.048 109.22 118.834 109.22C119.621 109.22 120.288 108.947 120.834 108.4ZM132.282 101.08C133.108 101.907 133.522 103.273 133.522 105.18C133.522 107.087 133.108 108.453 132.282 109.28C131.722 109.84 130.935 110.12 129.922 110.12C129.322 110.12 128.795 110.027 128.342 109.84C127.888 109.64 127.462 109.28 127.062 108.76V114.6H126.042V100.36H127.062V101.6C127.462 101.08 127.888 100.727 128.342 100.54C128.795 100.34 129.322 100.24 129.922 100.24C130.935 100.24 131.722 100.52 132.282 101.08ZM132.402 106.68C132.468 106.253 132.502 105.753 132.502 105.18C132.502 104.607 132.468 104.107 132.402 103.68C132.335 103.253 132.208 102.833 132.022 102.42C131.848 102.007 131.568 101.693 131.182 101.48C130.808 101.253 130.342 101.14 129.782 101.14C129.222 101.14 128.748 101.253 128.362 101.48C127.988 101.693 127.708 102.007 127.522 102.42C127.348 102.833 127.228 103.253 127.162 103.68C127.095 104.107 127.062 104.607 127.062 105.18C127.062 105.753 127.095 106.253 127.162 106.68C127.228 107.107 127.348 107.527 127.522 107.94C127.708 108.353 127.988 108.673 128.362 108.9C128.748 109.113 129.222 109.22 129.782 109.22C130.342 109.22 130.808 109.113 131.182 108.9C131.568 108.673 131.848 108.353 132.022 107.94C132.208 107.527 132.335 107.107 132.402 106.68ZM142.842 101.3C143.642 102.1 144.042 103.393 144.042 105.18C144.042 106.967 143.642 108.26 142.842 109.06C142.136 109.767 141.242 110.12 140.162 110.12C139.082 110.12 138.189 109.767 137.482 109.06C136.682 108.26 136.282 106.967 136.282 105.18C136.282 103.393 136.682 102.1 137.482 101.3C138.189 100.593 139.082 100.24 140.162 100.24C141.242 100.24 142.136 100.593 142.842 101.3ZM142.162 108.4C142.736 107.827 143.022 106.753 143.022 105.18C143.022 103.607 142.736 102.533 142.162 101.96C141.616 101.413 140.949 101.14 140.162 101.14C139.376 101.14 138.709 101.413 138.162 101.96C137.589 102.533 137.302 103.607 137.302 105.18C137.302 106.753 137.589 107.827 138.162 108.4C138.709 108.947 139.376 109.22 140.162 109.22C140.949 109.22 141.616 108.947 142.162 108.4ZM154.69 107.38C154.69 108.193 154.436 108.833 153.93 109.3C153.436 109.767 152.743 110 151.85 110H147.37V100.36H151.75C152.576 100.36 153.243 100.587 153.75 101.04C154.27 101.493 154.53 102.093 154.53 102.84C154.53 103.933 153.983 104.653 152.89 105C153.436 105.173 153.87 105.467 154.19 105.88C154.523 106.293 154.69 106.793 154.69 107.38ZM153.13 108.64C153.49 108.307 153.67 107.86 153.67 107.3C153.67 106.74 153.49 106.293 153.13 105.96C152.77 105.613 152.27 105.44 151.63 105.44H148.39V109.14H151.63C152.27 109.14 152.77 108.973 153.13 108.64ZM152.99 104.16C153.336 103.853 153.51 103.433 153.51 102.9C153.51 102.367 153.336 101.953 152.99 101.66C152.643 101.367 152.156 101.22 151.53 101.22H148.39V104.6H151.53C152.156 104.6 152.643 104.453 152.99 104.16ZM164.473 105.1C165.019 105.62 165.293 106.307 165.293 107.16C165.293 108.013 165.019 108.7 164.473 109.22C163.939 109.74 163.219 110 162.313 110H158.073V100.36H159.093V104.32H162.313C163.219 104.32 163.939 104.58 164.473 105.1ZM162.153 109.1C163.566 109.1 164.273 108.453 164.273 107.16C164.273 105.867 163.566 105.22 162.153 105.22H159.093V109.1H162.153ZM175.096 105.4H168.396C168.396 106.64 168.663 107.587 169.196 108.24C169.729 108.88 170.509 109.2 171.536 109.2C172.096 109.2 172.576 109.113 172.976 108.94C173.376 108.753 173.783 108.453 174.196 108.04L174.956 108.64C174.436 109.16 173.916 109.54 173.396 109.78C172.876 110.007 172.236 110.12 171.476 110.12C170.143 110.12 169.123 109.7 168.416 108.86C167.723 108.02 167.376 106.793 167.376 105.18C167.376 103.62 167.716 102.407 168.396 101.54C169.076 100.673 170.023 100.24 171.236 100.24C172.449 100.24 173.396 100.653 174.076 101.48C174.756 102.307 175.096 103.46 175.096 104.94V105.4ZM174.076 104.58C174.023 103.753 173.909 103.147 173.736 102.76C173.523 102.253 173.189 101.86 172.736 101.58C172.296 101.287 171.796 101.14 171.236 101.14C170.676 101.14 170.176 101.287 169.736 101.58C169.296 101.86 168.963 102.253 168.736 102.76C168.563 103.147 168.449 103.753 168.396 104.58H174.076Z" fill="black"/>
<rect x="49" width="80" height="80" rx="15" fill="#FF027E"/>
<path d="M104.31 26.5414C103.824 26.5414 103.431 26.9351 103.431 27.4203C103.431 27.9054 103.824 28.2992 104.31 28.2992C104.795 28.2992 105.188 27.9054 105.188 27.4203C105.188 26.935 104.795 26.5414 104.31 26.5414Z" fill="white"/>
<path d="M108.876 25.6559C106.779 23.2984 103.869 22.0001 100.684 22.0001C97.2011 22.0001 94.0228 23.3502 91.493 25.9045C90.6133 26.7926 89.9558 27.6799 89.5 28.3841C89.0442 27.68 88.3867 26.7928 87.507 25.9045C84.9772 23.3501 81.799 22 78.3159 22C71.6489 22 67 27.5776 67 34.209C67 43.1666 76.4925 50.7089 88.9244 61.4828C89.0896 61.626 89.2948 61.6976 89.5 61.6976C89.7052 61.6976 89.9104 61.626 90.0756 61.4828C102.537 50.6832 112 43.1541 112 34.209C112 30.9575 110.891 27.92 108.876 25.6559ZM89.5 59.656C77.7605 49.4973 68.7578 42.201 68.7578 34.209C68.7578 28.2509 72.8669 23.7579 78.3159 23.7579C81.3415 23.7579 83.999 24.8817 86.2147 27.0978C87.9028 28.7862 88.6904 30.5093 88.6981 30.5265C88.8395 30.8418 89.153 31.0443 89.4987 31.045C89.4992 31.045 89.4998 31.045 89.5004 31.045C89.8459 31.045 90.1599 30.8417 90.302 30.5265C90.3097 30.5093 91.0973 28.7863 92.7854 27.0978C95.001 24.8816 97.6585 23.7579 100.684 23.7579C106.133 23.7579 110.242 28.2509 110.242 34.209C110.242 42.3814 100.645 50.0114 89.5 59.656Z" fill="white"/>
<path d="M107.384 29.6725C107.158 29.2425 106.627 29.0769 106.197 29.3023C105.767 29.5277 105.601 30.0589 105.827 30.4888C106.407 31.5951 106.727 32.9163 106.727 34.209C106.727 36.7486 105.518 39.4442 102.922 42.6919C102.619 43.0711 102.681 43.6242 103.06 43.9272C103.442 44.2322 103.995 44.1661 104.296 43.7893C107.153 40.2132 108.484 37.1689 108.484 34.209C108.484 32.6143 108.104 31.0456 107.384 29.6725Z" fill="white"/>
<path d="M97.9375 38.8461H93.0156V33.9242C93.0156 33.4388 92.6221 33.0453 92.1367 33.0453H86.8633C86.3779 33.0453 85.9844 33.4388 85.9844 33.9242V38.8461H81.0625C80.5771 38.8461 80.1836 39.2396 80.1836 39.725V44.9984C80.1836 45.4838 80.5771 45.8773 81.0625 45.8773H85.9844V50.7992C85.9844 51.2846 86.3779 51.6781 86.8633 51.6781H92.1367C92.6221 51.6781 93.0156 51.2846 93.0156 50.7992V45.8773H97.9375C98.4229 45.8773 98.8164 45.4838 98.8164 44.9984V39.725C98.8164 39.2396 98.4229 38.8461 97.9375 38.8461ZM97.0586 44.1194H92.1367C91.6513 44.1194 91.2578 44.5129 91.2578 44.9983V49.9202H87.7422V44.9983C87.7422 44.5129 87.3487 44.1194 86.8633 44.1194H81.9414V40.6038H86.8633C87.3487 40.6038 87.7422 40.2103 87.7422 39.7249V34.803H91.2578V39.7249C91.2578 40.2103 91.6513 40.6038 92.1367 40.6038H97.0586V44.1194Z" fill="white"/>
</svg>
