<svg width="40" height="17" viewBox="0 0 50 17" fill="none" xmlns="http://www.w3.org/2000/svg">
<path fill-rule="evenodd" clip-rule="evenodd" d="M29.6351 7.78666L29.0302 6.44044L28.4069 7.78666H29.6351ZM31.7616 9.10545V9.26119H30.3042L29.9285 8.43692H28.1044L27.7287 9.26119H26.3812V9.10545C26.537 9.10545 26.6562 9.04127 26.7112 8.9315L28.0586 6.01921C28.1228 5.89101 28.1594 5.74438 28.1594 5.62534C28.1594 5.46972 28.1044 5.38727 28.0036 5.38727V5.23159H29.7268L31.395 8.91313C31.45 9.03216 31.5875 9.10545 31.7616 9.10545ZM20.3088 6.98083H21.3079C21.7845 6.98083 22.0319 6.80672 22.0319 6.48625C22.0319 6.14735 21.8121 6.00094 21.3354 6.00094H20.3087V6.98083H20.3088ZM23.5811 9.09629V9.26119H22.1237L21.0879 7.75923H20.3087V9.26119H19.0714V5.69868C19.0714 5.52463 18.9339 5.38727 18.7598 5.38727V5.23159H21.6838C22.6553 5.23159 23.3153 5.73533 23.3153 6.43134C23.3153 6.98083 22.9028 7.42949 22.3254 7.63098L23.2145 8.91307C23.3061 9.05048 23.4253 9.09629 23.5811 9.09629H23.5811ZM11.9412 7.97893C11.9412 7.67673 11.7304 7.52099 11.1805 7.52099H9.81472V8.49178H11.1713C11.6571 8.49178 11.9412 8.32693 11.9412 7.97893ZM9.81472 6.86174H11.2721C11.6937 6.86174 11.877 6.73348 11.877 6.44039C11.877 6.11992 11.6571 6.00088 11.0887 6.00088H9.81472V6.86174ZM13.206 8.08886C13.206 8.87637 12.6286 9.26113 11.4555 9.26113H8.58642V5.69857C8.58642 5.5063 8.46722 5.38721 8.27473 5.38721V5.23159H11.2354C12.4452 5.23159 13.0594 5.58875 13.0594 6.22974C13.0594 6.64187 12.8119 6.95329 12.4545 7.09981C12.9495 7.25549 13.206 7.58512 13.206 8.08886ZM5.8383 9.10545C6.03063 9.10545 6.14067 8.99552 6.14067 8.79398V5.69868C6.14067 5.4972 6.03063 5.38721 5.82903 5.38721V5.23159H7.68066V5.38727C7.47889 5.38727 7.36896 5.4972 7.36896 5.69868V8.79398C7.36896 8.99552 7.47889 9.10545 7.67139 9.10545V9.26113H5.8383V9.10545ZM18.1962 8.14383V9.26113H14.0532V5.68947C14.0532 5.4972 13.9431 5.38721 13.7415 5.38721V5.23159H18.0495V6.34889H17.8845C17.8845 6.14735 17.7745 6.03758 17.582 6.03758H15.2905V6.77923H17.5271V7.54853H15.2905V8.45519H17.7288C17.9212 8.45519 18.0312 8.34537 18.0312 8.14383H18.1962H18.1962ZM24.0776 9.10545C24.27 9.10545 24.38 8.99552 24.38 8.79398V5.69868C24.38 5.4972 24.27 5.38721 24.0684 5.38721V5.23159H25.92V5.38727C25.7182 5.38727 25.6083 5.4972 25.6083 5.69868V8.79398C25.6083 8.99552 25.7182 9.10545 25.9108 9.10545V9.26113H24.0776V9.10545ZM36.8117 5.23164V5.38727C36.6192 5.38727 36.5 5.4972 36.5 5.69868V9.26113H35.62L33.3469 6.81588V9.26113H32.247V5.69868C32.247 5.4972 32.137 5.38721 31.9353 5.38721V5.23164H33.466L35.4 7.31046V5.23164H36.8117ZM8.73472 11.4929V11.6577C8.45945 11.6944 8.26679 11.832 8.21171 12.0245L7.01896 16.3148H5.59673L4.38565 13.1521L3.24798 16.3148H1.82586L0.37621 11.887C0.330239 11.7404 0.192713 11.6579 5.5521e-05 11.6579V11.4929H1.57813L2.5966 14.5821L3.77093 11.4929H5.06462L6.25749 14.5547L7.1199 11.4929H8.73467H8.73472ZM13.5209 15.1954V16.3127H9.37788V12.7411C9.37788 12.5487 9.26783 12.4389 9.06624 12.4389V12.2832H13.3742V13.4004H13.2092C13.2092 13.199 13.0993 13.0891 12.9067 13.0891H10.6152V13.8308H12.8518V14.6001H10.6152V15.5068H13.0534C13.2459 15.5068 13.3558 15.3969 13.3558 15.1953H13.5209V15.1954ZM14.5842 12.7502C14.5842 12.5487 14.4742 12.4389 14.2725 12.4389V12.2832H15.8216V15.3969H17.8382C18.0398 15.3969 18.1497 15.287 18.1497 15.0856H18.3056V16.3127H14.5842V12.7502ZM19.1856 12.7502C19.1856 12.5487 19.0756 12.4389 18.8739 12.4389V12.2832H20.423V15.3969H22.4395C22.6413 15.3969 22.7511 15.287 22.7511 15.0856H22.907V16.3127H19.1856V12.7502ZM28.4142 12.2832V12.4389C28.2218 12.4389 28.1026 12.5488 28.1026 12.7502V16.3127H27.2227L24.9494 13.8675V16.3127H23.8496V12.7503C23.8496 12.5488 23.7395 12.4389 23.5379 12.4389V12.2832H25.0686L27.0026 14.3621V12.2832H28.4142L28.4142 12.2832ZM33.5128 15.1954V16.3127H29.3698V12.7411C29.3698 12.5487 29.2598 12.4389 29.0582 12.4389V12.2832H33.3662V13.4004H33.2012C33.2012 13.199 33.0912 13.0891 32.8987 13.0891H30.6071V13.8308H32.8438V14.6001H30.6071V15.5068H33.0453C33.2378 15.5068 33.3478 15.3969 33.3478 15.1953H33.5128V15.1954ZM36.6045 13.8396C37.6229 13.9679 38.4671 14.1879 38.4671 15.0588C38.4671 15.9848 37.5312 16.3696 36.4485 16.3696C35.7236 16.3696 34.9713 16.2322 34.2098 15.9572L34.5401 14.8755L34.696 14.9213C34.6684 15.0955 34.7603 15.2055 34.9622 15.2971C35.3842 15.4713 35.797 15.5446 36.3109 15.5446C36.7513 15.5446 37.2743 15.4805 37.2743 15.1504C37.2743 14.8938 36.9714 14.8021 35.7787 14.6829C35.0356 14.6096 34.274 14.3346 34.274 13.5553C34.274 12.712 35.2282 12.2261 36.4026 12.2261C37.0173 12.2261 37.5771 12.3454 38.3294 12.6204L37.8524 13.638L37.7055 13.5646C37.7513 13.4546 37.7238 13.317 37.5587 13.2437C37.2559 13.1154 36.687 13.0513 36.3475 13.0513C35.9622 13.0513 35.4668 13.152 35.4668 13.4546C35.4668 13.6745 35.8155 13.7388 36.2467 13.7937L36.6045 13.8396ZM41.5245 13.8396C42.543 13.9679 43.3871 14.1879 43.3871 15.0588C43.3871 15.9848 42.4511 16.3696 41.3685 16.3696C40.6437 16.3696 39.8914 16.2322 39.1298 15.9572L39.4601 14.8755L39.6161 14.9213C39.5885 15.0955 39.6803 15.2055 39.8822 15.2971C40.3042 15.4713 40.7171 15.5446 41.231 15.5446C41.6713 15.5446 42.1943 15.4805 42.1943 15.1504C42.1943 14.8938 41.8916 14.8021 40.6987 14.6829C39.9556 14.6096 39.1941 14.3346 39.1941 13.5553C39.1941 12.712 40.1483 12.2261 41.3226 12.2261C41.9374 12.2261 42.4971 12.3454 43.2494 12.6204L42.7723 13.638L42.6255 13.5646C42.6713 13.4546 42.6439 13.317 42.4788 13.2437C42.1759 13.1154 41.6071 13.0513 41.2676 13.0513C40.8823 13.0513 40.3868 13.152 40.3868 13.4546C40.3868 13.6745 40.7355 13.7388 41.1667 13.7937L41.5245 13.8396ZM3.06459 6.24723C4.2664 6.348 5.22985 6.72388 5.22985 7.72314C5.22985 8.63069 4.5234 9.31815 2.68838 9.31815C1.87172 9.31815 1.26621 9.21732 0.532224 8.9606C0.348616 8.89658 0.24779 8.95155 0.146853 9.13488L0 9.07969L0.578084 7.66801C1.17438 8.10807 1.76162 8.28224 2.66079 8.28224C3.51403 8.28224 3.97286 8.04394 3.97286 7.74136C3.97286 7.42056 3.41321 7.33805 2.1103 7.24628C1.20197 7.1822 0.266112 6.85219 0.266112 5.90794C0.266112 4.94538 1.24783 4.38617 2.49572 4.38617C3.13799 4.38617 3.99118 4.55129 4.60596 4.77121C4.80778 4.83544 4.9271 4.78031 5.01887 4.63374L5.15645 4.69786L4.5968 5.86214C4.08307 5.61468 3.22965 5.42213 2.55996 5.42213C2.05527 5.42213 1.51395 5.51374 1.51395 5.7979C1.51395 6.07295 1.83508 6.1463 3.06459 6.24718V6.24723Z" fill="#131413"/>
<path fill-rule="evenodd" clip-rule="evenodd" d="M45.1102 4.23097L44.528 5.2384H41.501L40.9189 4.23097H45.1102ZM42.8981 2.82069L43.4802 3.82811H40.9189L41.501 2.82069H42.8981ZM47.7879 2.41772H46.6237L47.9044 0.201485L48.4864 1.20886L47.7879 2.41772ZM45.4595 4.43252L46.0416 5.43989L44.5281 8.05903H43.3639L45.4595 4.43252ZM43.131 5.64137H44.2952L43.0145 7.85766L42.4324 6.85023L43.131 5.64137H43.131ZM45.1102 3.82806H43.9459L42.4324 1.20886L43.0146 0.201541L45.1102 3.82806ZM45.6923 6.85023L46.2744 5.8428L47.555 8.05909H46.3908L45.6923 6.85023ZM45.8087 4.23097H46.9729L48.4864 6.85018L47.9044 7.8576L45.8087 4.23097ZM45.8087 3.82806L46.3909 2.82069H49.4179L50 3.82806H45.8087ZM47.4387 4.23097H50L49.4179 5.2384H48.0209L47.4387 4.23097ZM47.5551 0L45.4595 3.62652L43.3638 0H44.5281L45.4595 1.61183L46.3909 0H47.5551Z" fill="#009EE3"/>
</svg>
