<svg width="371" height="26" viewBox="0 0 371 26" fill="none" xmlns="http://www.w3.org/2000/svg">
<path d="M304.992 18.072C304.651 18.072 304.373 18.0133 304.16 17.896C303.957 17.7787 303.808 17.6507 303.712 17.512C303.52 17.64 303.259 17.768 302.928 17.896C302.597 18.024 302.235 18.088 301.84 18.088C301.349 18.088 300.896 18.0187 300.48 17.88C300.075 17.7307 299.717 17.512 299.408 17.224C299.109 16.9253 298.875 16.552 298.704 16.104C298.533 15.656 298.448 15.128 298.448 14.52C298.448 14.0187 298.523 13.5493 298.672 13.112C298.832 12.6747 299.056 12.296 299.344 11.976C299.643 11.6453 300.005 11.3893 300.432 11.208C300.869 11.016 301.365 10.92 301.92 10.92C302.432 10.92 302.891 10.968 303.296 11.064C303.712 11.1493 304.037 11.24 304.272 11.336V16.024C304.272 16.44 304.341 16.7387 304.48 16.92C304.629 17.1013 304.821 17.192 305.056 17.192C305.419 17.192 305.712 17.08 305.936 16.856C306.171 16.6213 306.352 16.3333 306.48 15.992C306.619 15.64 306.715 15.272 306.768 14.888C306.821 14.4933 306.848 14.136 306.848 13.816C306.848 13.1227 306.731 12.4613 306.496 11.832C306.261 11.2027 305.92 10.6533 305.472 10.184C305.035 9.704 304.496 9.32533 303.856 9.048C303.216 8.76 302.491 8.616 301.68 8.616C300.859 8.616 300.112 8.74933 299.44 9.016C298.768 9.272 298.192 9.65067 297.712 10.152C297.232 10.6533 296.859 11.272 296.592 12.008C296.325 12.7333 296.192 13.5653 296.192 14.504C296.192 15.496 296.336 16.3653 296.624 17.112C296.923 17.8587 297.328 18.4827 297.84 18.984C298.352 19.4853 298.955 19.8587 299.648 20.104C300.352 20.36 301.109 20.488 301.92 20.488C302.539 20.488 303.024 20.456 303.376 20.392C303.739 20.3387 303.979 20.2907 304.096 20.248L304.208 21.128C304.027 21.1813 303.723 21.24 303.296 21.304C302.869 21.368 302.411 21.4 301.92 21.4C300.992 21.4 300.117 21.2613 299.296 20.984C298.475 20.7173 297.755 20.296 297.136 19.72C296.528 19.1547 296.043 18.44 295.68 17.576C295.328 16.712 295.152 15.688 295.152 14.504C295.152 13.3627 295.323 12.3653 295.664 11.512C296.005 10.6587 296.469 9.94933 297.056 9.384C297.653 8.81867 298.347 8.39733 299.136 8.12C299.936 7.84267 300.784 7.704 301.68 7.704C302.533 7.704 303.333 7.848 304.08 8.136C304.837 8.424 305.499 8.83467 306.064 9.368C306.629 9.90133 307.072 10.5467 307.392 11.304C307.723 12.0613 307.888 12.9093 307.888 13.848C307.888 14.5413 307.813 15.1547 307.664 15.688C307.515 16.2107 307.307 16.648 307.04 17C306.784 17.352 306.48 17.6187 306.128 17.8C305.776 17.9813 305.397 18.072 304.992 18.072ZM301.776 17.224C302.139 17.224 302.432 17.1973 302.656 17.144C302.88 17.08 303.115 16.9733 303.36 16.824C303.317 16.7173 303.285 16.584 303.264 16.424C303.253 16.2533 303.248 16.1093 303.248 15.992V11.928C303.163 11.9067 303.024 11.88 302.832 11.848C302.64 11.8053 302.373 11.784 302.032 11.784C301.627 11.784 301.264 11.8533 300.944 11.992C300.635 12.12 300.373 12.3067 300.16 12.552C299.947 12.7867 299.787 13.0747 299.68 13.416C299.573 13.7467 299.52 14.1093 299.52 14.504C299.52 14.9733 299.579 15.3787 299.696 15.72C299.813 16.0613 299.973 16.344 300.176 16.568C300.379 16.792 300.619 16.9573 300.896 17.064C301.173 17.1707 301.467 17.224 301.776 17.224ZM310.423 11.016C310.732 10.9307 311.148 10.8347 311.671 10.728C312.194 10.6213 312.834 10.568 313.591 10.568C314.22 10.568 314.743 10.6587 315.159 10.84C315.586 11.0213 315.922 11.2827 316.167 11.624C316.423 11.9547 316.604 12.3547 316.711 12.824C316.818 13.2933 316.871 13.8107 316.871 14.376V19H315.831V14.712C315.831 14.1253 315.788 13.6293 315.703 13.224C315.628 12.8187 315.495 12.488 315.303 12.232C315.122 11.976 314.876 11.7947 314.567 11.688C314.268 11.5707 313.89 11.512 313.431 11.512C312.94 11.512 312.514 11.5387 312.151 11.592C311.799 11.6453 311.57 11.6933 311.463 11.736V19H310.423V11.016ZM319.036 14.856C319.036 14.1307 319.138 13.5013 319.34 12.968C319.554 12.424 319.826 11.9707 320.156 11.608C320.498 11.2453 320.882 10.9787 321.308 10.808C321.746 10.6267 322.194 10.536 322.652 10.536C323.666 10.536 324.471 10.8667 325.068 11.528C325.676 12.1893 325.98 13.208 325.98 14.584C325.98 14.6693 325.975 14.7547 325.964 14.84C325.964 14.9253 325.959 15.0053 325.948 15.08H320.14C320.172 16.0933 320.423 16.872 320.892 17.416C321.362 17.96 322.108 18.232 323.132 18.232C323.698 18.232 324.146 18.1787 324.476 18.072C324.807 17.9653 325.047 17.8747 325.196 17.8L325.388 18.696C325.239 18.7813 324.956 18.8827 324.54 19C324.135 19.1173 323.655 19.176 323.1 19.176C322.375 19.176 321.756 19.0693 321.244 18.856C320.732 18.6427 320.311 18.344 319.98 17.96C319.65 17.576 319.41 17.1227 319.26 16.6C319.111 16.0667 319.036 15.4853 319.036 14.856ZM324.908 14.2C324.887 13.336 324.684 12.664 324.3 12.184C323.916 11.704 323.372 11.464 322.668 11.464C322.295 11.464 321.959 11.5387 321.66 11.688C321.372 11.8373 321.116 12.04 320.892 12.296C320.679 12.5413 320.508 12.8293 320.38 13.16C320.263 13.4907 320.194 13.8373 320.172 14.2H324.908ZM329.274 10.728H332.57V11.608H329.274V16.008C329.274 16.4773 329.311 16.8613 329.386 17.16C329.471 17.448 329.589 17.672 329.738 17.832C329.887 17.992 330.069 18.0987 330.282 18.152C330.495 18.2053 330.73 18.232 330.986 18.232C331.423 18.232 331.775 18.184 332.042 18.088C332.309 17.9813 332.517 17.8853 332.666 17.8L332.922 18.664C332.773 18.76 332.511 18.872 332.138 19C331.765 19.1173 331.359 19.176 330.922 19.176C330.41 19.176 329.978 19.112 329.626 18.984C329.285 18.8453 329.007 18.6427 328.794 18.376C328.591 18.0987 328.447 17.7573 328.362 17.352C328.277 16.9467 328.234 16.4667 328.234 15.912V8.296L329.274 8.104V10.728ZM337.909 19.176C337.269 19.176 336.704 19.0747 336.213 18.872C335.723 18.6693 335.312 18.3813 334.981 18.008C334.661 17.624 334.416 17.1707 334.245 16.648C334.075 16.1147 333.989 15.528 333.989 14.888C333.989 14.2373 334.075 13.6453 334.245 13.112C334.427 12.5787 334.683 12.12 335.013 11.736C335.344 11.352 335.744 11.0587 336.213 10.856C336.683 10.6427 337.211 10.536 337.797 10.536C338.245 10.536 338.661 10.5733 339.045 10.648C339.44 10.7227 339.744 10.8187 339.957 10.936L339.685 11.832C339.472 11.7253 339.232 11.64 338.965 11.576C338.699 11.512 338.341 11.48 337.893 11.48C336.976 11.48 336.277 11.7787 335.797 12.376C335.328 12.9627 335.093 13.8 335.093 14.888C335.093 15.3787 335.147 15.832 335.253 16.248C335.36 16.6533 335.531 17.0053 335.765 17.304C336.011 17.592 336.32 17.8213 336.693 17.992C337.077 18.152 337.541 18.232 338.085 18.232C338.533 18.232 338.907 18.184 339.205 18.088C339.515 17.9813 339.739 17.8907 339.877 17.816L340.101 18.712C339.909 18.8187 339.605 18.92 339.189 19.016C338.784 19.1227 338.357 19.176 337.909 19.176ZM348.901 14.872C348.901 15.5227 348.805 16.1147 348.613 16.648C348.431 17.1813 348.17 17.6347 347.829 18.008C347.498 18.3813 347.103 18.6747 346.645 18.888C346.186 19.0907 345.679 19.192 345.125 19.192C344.57 19.192 344.063 19.0907 343.605 18.888C343.146 18.6747 342.746 18.3813 342.405 18.008C342.074 17.6347 341.813 17.1813 341.621 16.648C341.439 16.1147 341.349 15.5227 341.349 14.872C341.349 14.2213 341.439 13.6293 341.621 13.096C341.813 12.5627 342.074 12.1093 342.405 11.736C342.746 11.352 343.146 11.0587 343.605 10.856C344.063 10.6427 344.57 10.536 345.125 10.536C345.679 10.536 346.186 10.6427 346.645 10.856C347.103 11.0587 347.498 11.352 347.829 11.736C348.17 12.1093 348.431 12.5627 348.613 13.096C348.805 13.6293 348.901 14.2213 348.901 14.872ZM347.797 14.872C347.797 13.8373 347.557 13.016 347.077 12.408C346.597 11.7893 345.946 11.48 345.125 11.48C344.303 11.48 343.653 11.7893 343.173 12.408C342.693 13.016 342.453 13.8373 342.453 14.872C342.453 15.9067 342.693 16.728 343.173 17.336C343.653 17.944 344.303 18.248 345.125 18.248C345.946 18.248 346.597 17.944 347.077 17.336C347.557 16.728 347.797 15.9067 347.797 14.872ZM352.629 18.312C352.629 18.5573 352.549 18.7653 352.389 18.936C352.24 19.1067 352.027 19.192 351.749 19.192C351.472 19.192 351.253 19.1067 351.093 18.936C350.944 18.7653 350.869 18.5573 350.869 18.312C350.869 18.0667 350.944 17.8587 351.093 17.688C351.253 17.5173 351.472 17.432 351.749 17.432C352.027 17.432 352.24 17.5173 352.389 17.688C352.549 17.8587 352.629 18.0667 352.629 18.312ZM361.447 18.712C361.137 18.7973 360.721 18.8933 360.199 19C359.676 19.1067 359.036 19.16 358.279 19.16C357.66 19.16 357.143 19.0693 356.727 18.888C356.311 18.7067 355.975 18.4507 355.719 18.12C355.463 17.7893 355.276 17.3893 355.159 16.92C355.052 16.4507 354.999 15.9333 354.999 15.368V10.728H356.039V15.032C356.039 15.6187 356.081 16.1147 356.167 16.52C356.252 16.9253 356.391 17.256 356.583 17.512C356.775 17.7573 357.02 17.9387 357.319 18.056C357.628 18.1627 358.001 18.216 358.439 18.216C358.929 18.216 359.356 18.1893 359.719 18.136C360.081 18.0827 360.311 18.0347 360.407 17.992V10.728H361.447V18.712ZM369.34 11.576C369.095 11.8533 368.775 12.2373 368.38 12.728C367.985 13.2187 367.564 13.768 367.116 14.376C366.668 14.9733 366.225 15.6027 365.788 16.264C365.351 16.9147 364.967 17.5333 364.636 18.12H369.484V19H363.436V18.248C363.713 17.7253 364.055 17.1493 364.46 16.52C364.876 15.8907 365.303 15.272 365.74 14.664C366.177 14.0453 366.604 13.4693 367.02 12.936C367.436 12.392 367.788 11.9493 368.076 11.608H363.676V10.728H369.34V11.576Z" fill="white"/>
<path d="M276 26C283.181 26 289 20.1814 289 13C289 5.81858 283.181 0 276 0C268.819 0 263 5.81858 263 13C263 20.1814 268.819 26 276 26ZM268.949 12.7183L281.483 7.88558C282.065 7.67542 282.573 8.0275 282.384 8.90717L282.385 8.90608L280.251 18.9605C280.093 19.6733 279.669 19.8467 279.077 19.5108L275.827 17.1156L274.259 18.6258C274.086 18.7991 273.94 18.9453 273.604 18.9453L273.834 15.6379L279.858 10.1963C280.12 9.96558 279.799 9.83558 279.454 10.0653L272.01 14.7517L268.801 13.7508C268.105 13.5297 268.09 13.0542 268.949 12.7183Z" fill="white"/>
<path d="M170.992 18.072C170.651 18.072 170.373 18.0133 170.16 17.896C169.957 17.7787 169.808 17.6507 169.712 17.512C169.52 17.64 169.259 17.768 168.928 17.896C168.597 18.024 168.235 18.088 167.84 18.088C167.349 18.088 166.896 18.0187 166.48 17.88C166.075 17.7307 165.717 17.512 165.408 17.224C165.109 16.9253 164.875 16.552 164.704 16.104C164.533 15.656 164.448 15.128 164.448 14.52C164.448 14.0187 164.523 13.5493 164.672 13.112C164.832 12.6747 165.056 12.296 165.344 11.976C165.643 11.6453 166.005 11.3893 166.432 11.208C166.869 11.016 167.365 10.92 167.92 10.92C168.432 10.92 168.891 10.968 169.296 11.064C169.712 11.1493 170.037 11.24 170.272 11.336V16.024C170.272 16.44 170.341 16.7387 170.48 16.92C170.629 17.1013 170.821 17.192 171.056 17.192C171.419 17.192 171.712 17.08 171.936 16.856C172.171 16.6213 172.352 16.3333 172.48 15.992C172.619 15.64 172.715 15.272 172.768 14.888C172.821 14.4933 172.848 14.136 172.848 13.816C172.848 13.1227 172.731 12.4613 172.496 11.832C172.261 11.2027 171.92 10.6533 171.472 10.184C171.035 9.704 170.496 9.32533 169.856 9.048C169.216 8.76 168.491 8.616 167.68 8.616C166.859 8.616 166.112 8.74933 165.44 9.016C164.768 9.272 164.192 9.65067 163.712 10.152C163.232 10.6533 162.859 11.272 162.592 12.008C162.325 12.7333 162.192 13.5653 162.192 14.504C162.192 15.496 162.336 16.3653 162.624 17.112C162.923 17.8587 163.328 18.4827 163.84 18.984C164.352 19.4853 164.955 19.8587 165.648 20.104C166.352 20.36 167.109 20.488 167.92 20.488C168.539 20.488 169.024 20.456 169.376 20.392C169.739 20.3387 169.979 20.2907 170.096 20.248L170.208 21.128C170.027 21.1813 169.723 21.24 169.296 21.304C168.869 21.368 168.411 21.4 167.92 21.4C166.992 21.4 166.117 21.2613 165.296 20.984C164.475 20.7173 163.755 20.296 163.136 19.72C162.528 19.1547 162.043 18.44 161.68 17.576C161.328 16.712 161.152 15.688 161.152 14.504C161.152 13.3627 161.323 12.3653 161.664 11.512C162.005 10.6587 162.469 9.94933 163.056 9.384C163.653 8.81867 164.347 8.39733 165.136 8.12C165.936 7.84267 166.784 7.704 167.68 7.704C168.533 7.704 169.333 7.848 170.08 8.136C170.837 8.424 171.499 8.83467 172.064 9.368C172.629 9.90133 173.072 10.5467 173.392 11.304C173.723 12.0613 173.888 12.9093 173.888 13.848C173.888 14.5413 173.813 15.1547 173.664 15.688C173.515 16.2107 173.307 16.648 173.04 17C172.784 17.352 172.48 17.6187 172.128 17.8C171.776 17.9813 171.397 18.072 170.992 18.072ZM167.776 17.224C168.139 17.224 168.432 17.1973 168.656 17.144C168.88 17.08 169.115 16.9733 169.36 16.824C169.317 16.7173 169.285 16.584 169.264 16.424C169.253 16.2533 169.248 16.1093 169.248 15.992V11.928C169.163 11.9067 169.024 11.88 168.832 11.848C168.64 11.8053 168.373 11.784 168.032 11.784C167.627 11.784 167.264 11.8533 166.944 11.992C166.635 12.12 166.373 12.3067 166.16 12.552C165.947 12.7867 165.787 13.0747 165.68 13.416C165.573 13.7467 165.52 14.1093 165.52 14.504C165.52 14.9733 165.579 15.3787 165.696 15.72C165.813 16.0613 165.973 16.344 166.176 16.568C166.379 16.792 166.619 16.9573 166.896 17.064C167.173 17.1707 167.467 17.224 167.776 17.224ZM176.423 11.016C176.732 10.9307 177.148 10.8347 177.671 10.728C178.194 10.6213 178.834 10.568 179.591 10.568C180.22 10.568 180.743 10.6587 181.159 10.84C181.586 11.0213 181.922 11.2827 182.167 11.624C182.423 11.9547 182.604 12.3547 182.711 12.824C182.818 13.2933 182.871 13.8107 182.871 14.376V19H181.831V14.712C181.831 14.1253 181.788 13.6293 181.703 13.224C181.628 12.8187 181.495 12.488 181.303 12.232C181.122 11.976 180.876 11.7947 180.567 11.688C180.268 11.5707 179.89 11.512 179.431 11.512C178.94 11.512 178.514 11.5387 178.151 11.592C177.799 11.6453 177.57 11.6933 177.463 11.736V19H176.423V11.016ZM185.036 14.856C185.036 14.1307 185.138 13.5013 185.34 12.968C185.554 12.424 185.826 11.9707 186.156 11.608C186.498 11.2453 186.882 10.9787 187.308 10.808C187.746 10.6267 188.194 10.536 188.652 10.536C189.666 10.536 190.471 10.8667 191.068 11.528C191.676 12.1893 191.98 13.208 191.98 14.584C191.98 14.6693 191.975 14.7547 191.964 14.84C191.964 14.9253 191.959 15.0053 191.948 15.08H186.14C186.172 16.0933 186.423 16.872 186.892 17.416C187.362 17.96 188.108 18.232 189.132 18.232C189.698 18.232 190.146 18.1787 190.476 18.072C190.807 17.9653 191.047 17.8747 191.196 17.8L191.388 18.696C191.239 18.7813 190.956 18.8827 190.54 19C190.135 19.1173 189.655 19.176 189.1 19.176C188.375 19.176 187.756 19.0693 187.244 18.856C186.732 18.6427 186.311 18.344 185.98 17.96C185.65 17.576 185.41 17.1227 185.26 16.6C185.111 16.0667 185.036 15.4853 185.036 14.856ZM190.908 14.2C190.887 13.336 190.684 12.664 190.3 12.184C189.916 11.704 189.372 11.464 188.668 11.464C188.295 11.464 187.959 11.5387 187.66 11.688C187.372 11.8373 187.116 12.04 186.892 12.296C186.679 12.5413 186.508 12.8293 186.38 13.16C186.263 13.4907 186.194 13.8373 186.172 14.2H190.908ZM195.274 10.728H198.57V11.608H195.274V16.008C195.274 16.4773 195.311 16.8613 195.386 17.16C195.471 17.448 195.589 17.672 195.738 17.832C195.887 17.992 196.069 18.0987 196.282 18.152C196.495 18.2053 196.73 18.232 196.986 18.232C197.423 18.232 197.775 18.184 198.042 18.088C198.309 17.9813 198.517 17.8853 198.666 17.8L198.922 18.664C198.773 18.76 198.511 18.872 198.138 19C197.765 19.1173 197.359 19.176 196.922 19.176C196.41 19.176 195.978 19.112 195.626 18.984C195.285 18.8453 195.007 18.6427 194.794 18.376C194.591 18.0987 194.447 17.7573 194.362 17.352C194.277 16.9467 194.234 16.4667 194.234 15.912V8.296L195.274 8.104V10.728ZM203.909 19.176C203.269 19.176 202.704 19.0747 202.213 18.872C201.723 18.6693 201.312 18.3813 200.981 18.008C200.661 17.624 200.416 17.1707 200.245 16.648C200.075 16.1147 199.989 15.528 199.989 14.888C199.989 14.2373 200.075 13.6453 200.245 13.112C200.427 12.5787 200.683 12.12 201.013 11.736C201.344 11.352 201.744 11.0587 202.213 10.856C202.683 10.6427 203.211 10.536 203.797 10.536C204.245 10.536 204.661 10.5733 205.045 10.648C205.44 10.7227 205.744 10.8187 205.957 10.936L205.685 11.832C205.472 11.7253 205.232 11.64 204.965 11.576C204.699 11.512 204.341 11.48 203.893 11.48C202.976 11.48 202.277 11.7787 201.797 12.376C201.328 12.9627 201.093 13.8 201.093 14.888C201.093 15.3787 201.147 15.832 201.253 16.248C201.36 16.6533 201.531 17.0053 201.765 17.304C202.011 17.592 202.32 17.8213 202.693 17.992C203.077 18.152 203.541 18.232 204.085 18.232C204.533 18.232 204.907 18.184 205.205 18.088C205.515 17.9813 205.739 17.8907 205.877 17.816L206.101 18.712C205.909 18.8187 205.605 18.92 205.189 19.016C204.784 19.1227 204.357 19.176 203.909 19.176ZM214.901 14.872C214.901 15.5227 214.805 16.1147 214.613 16.648C214.431 17.1813 214.17 17.6347 213.829 18.008C213.498 18.3813 213.103 18.6747 212.645 18.888C212.186 19.0907 211.679 19.192 211.125 19.192C210.57 19.192 210.063 19.0907 209.605 18.888C209.146 18.6747 208.746 18.3813 208.405 18.008C208.074 17.6347 207.813 17.1813 207.621 16.648C207.439 16.1147 207.349 15.5227 207.349 14.872C207.349 14.2213 207.439 13.6293 207.621 13.096C207.813 12.5627 208.074 12.1093 208.405 11.736C208.746 11.352 209.146 11.0587 209.605 10.856C210.063 10.6427 210.57 10.536 211.125 10.536C211.679 10.536 212.186 10.6427 212.645 10.856C213.103 11.0587 213.498 11.352 213.829 11.736C214.17 12.1093 214.431 12.5627 214.613 13.096C214.805 13.6293 214.901 14.2213 214.901 14.872ZM213.797 14.872C213.797 13.8373 213.557 13.016 213.077 12.408C212.597 11.7893 211.946 11.48 211.125 11.48C210.303 11.48 209.653 11.7893 209.173 12.408C208.693 13.016 208.453 13.8373 208.453 14.872C208.453 15.9067 208.693 16.728 209.173 17.336C209.653 17.944 210.303 18.248 211.125 18.248C211.946 18.248 212.597 17.944 213.077 17.336C213.557 16.728 213.797 15.9067 213.797 14.872ZM215.701 21.064H223.701V21.96H215.701V21.064ZM231.353 18.712C231.044 18.7973 230.628 18.8933 230.105 19C229.582 19.1067 228.942 19.16 228.185 19.16C227.566 19.16 227.049 19.0693 226.633 18.888C226.217 18.7067 225.881 18.4507 225.625 18.12C225.369 17.7893 225.182 17.3893 225.065 16.92C224.958 16.4507 224.905 15.9333 224.905 15.368V10.728H225.945V15.032C225.945 15.6187 225.988 16.1147 226.073 16.52C226.158 16.9253 226.297 17.256 226.489 17.512C226.681 17.7573 226.926 17.9387 227.225 18.056C227.534 18.1627 227.908 18.216 228.345 18.216C228.836 18.216 229.262 18.1893 229.625 18.136C229.988 18.0827 230.217 18.0347 230.313 17.992V10.728H231.353V18.712ZM239.246 11.576C239.001 11.8533 238.681 12.2373 238.286 12.728C237.892 13.2187 237.47 13.768 237.022 14.376C236.574 14.9733 236.132 15.6027 235.694 16.264C235.257 16.9147 234.873 17.5333 234.542 18.12H239.39V19H233.342V18.248C233.62 17.7253 233.961 17.1493 234.366 16.52C234.782 15.8907 235.209 15.272 235.646 14.664C236.084 14.0453 236.51 13.4693 236.926 12.936C237.342 12.392 237.694 11.9493 237.982 11.608H233.582V10.728H239.246V11.576Z" fill="white"/>
<path d="M144.488 13C144.488 14.3743 143.374 15.4883 142 15.4883C140.626 15.4883 139.512 14.3743 139.512 13C139.512 11.6257 140.626 10.5117 142 10.5117C143.374 10.5117 144.488 11.6257 144.488 13Z" fill="white"/>
<path d="M147.819 8.59761C147.7 8.27348 147.509 7.9801 147.261 7.73929C147.02 7.49133 146.727 7.30051 146.403 7.18089C146.14 7.07874 145.744 6.95714 145.017 6.92401C144.229 6.88811 143.993 6.88037 142 6.88037C140.007 6.88037 139.771 6.88791 138.984 6.92381C138.256 6.95714 137.86 7.07874 137.598 7.18089C137.273 7.30051 136.98 7.49133 136.739 7.73929C136.491 7.9801 136.3 8.27328 136.181 8.59761C136.078 8.86064 135.957 9.25598 135.924 9.98378C135.888 10.7709 135.88 11.0069 135.88 13.0003C135.88 14.9935 135.888 15.2295 135.924 16.0168C135.957 16.7446 136.078 17.1398 136.181 17.4028C136.3 17.7271 136.491 18.0203 136.739 18.2611C136.98 18.5091 137.273 18.6999 137.597 18.8195C137.86 18.9219 138.256 19.0435 138.984 19.0766C139.771 19.1125 140.007 19.12 142 19.12C143.993 19.12 144.229 19.1125 145.016 19.0766C145.744 19.0435 146.14 18.9219 146.403 18.8195C147.054 18.5684 147.568 18.0538 147.819 17.4028C147.921 17.1398 148.043 16.7446 148.076 16.0168C148.112 15.2295 148.12 14.9935 148.12 13.0003C148.12 11.0069 148.112 10.7709 148.076 9.98378C148.043 9.25598 147.922 8.86064 147.819 8.59761ZM142 16.8333C139.883 16.8333 138.167 15.1172 138.167 13.0001C138.167 10.883 139.883 9.16692 142 9.16692C144.117 9.16692 145.833 10.883 145.833 13.0001C145.833 15.1172 144.117 16.8333 142 16.8333ZM145.985 9.91118C145.49 9.91118 145.089 9.51009 145.089 9.01537C145.089 8.52065 145.49 8.11955 145.985 8.11955C146.48 8.11955 146.881 8.52065 146.881 9.01537C146.88 9.51009 146.48 9.91118 145.985 9.91118Z" fill="white"/>
<path d="M142 0C134.821 0 129 5.8214 129 13C129 20.1786 134.821 26 142 26C149.179 26 155 20.1786 155 13C155 5.8214 149.179 0 142 0ZM149.42 16.0776C149.384 16.8723 149.257 17.4148 149.073 17.8897C148.685 18.8924 147.892 19.6851 146.89 20.0729C146.415 20.2574 145.872 20.3835 145.078 20.4198C144.282 20.4561 144.027 20.4648 142 20.4648C139.973 20.4648 139.719 20.4561 138.922 20.4198C138.128 20.3835 137.585 20.2574 137.111 20.0729C136.612 19.8854 136.161 19.5916 135.788 19.2118C135.409 18.8391 135.115 18.3878 134.927 17.8897C134.743 17.415 134.616 16.8723 134.58 16.0778C134.544 15.2816 134.535 15.0273 134.535 13C134.535 10.9727 134.544 10.7184 134.58 9.92238C134.616 9.12773 134.742 8.58521 134.927 8.11032C135.114 7.61223 135.408 7.16095 135.788 6.78822C136.161 6.40836 136.612 6.11458 137.11 5.92712C137.585 5.74265 138.128 5.61649 138.922 5.58018C139.718 5.54388 139.973 5.53516 142 5.53516C144.027 5.53516 144.282 5.54388 145.078 5.58038C145.872 5.61649 146.415 5.74265 146.89 5.92693C147.388 6.11438 147.839 6.40836 148.212 6.78822C148.592 7.16115 148.886 7.61223 149.073 8.11032C149.258 8.58521 149.384 9.12773 149.42 9.92238C149.456 10.7184 149.465 10.9727 149.465 13C149.465 15.0273 149.456 15.2816 149.42 16.0776Z" fill="white"/>
<path d="M41.992 18.072C41.6507 18.072 41.3733 18.0133 41.16 17.896C40.9573 17.7787 40.808 17.6507 40.712 17.512C40.52 17.64 40.2587 17.768 39.928 17.896C39.5973 18.024 39.2347 18.088 38.84 18.088C38.3493 18.088 37.896 18.0187 37.48 17.88C37.0747 17.7307 36.7173 17.512 36.408 17.224C36.1093 16.9253 35.8747 16.552 35.704 16.104C35.5333 15.656 35.448 15.128 35.448 14.52C35.448 14.0187 35.5227 13.5493 35.672 13.112C35.832 12.6747 36.056 12.296 36.344 11.976C36.6427 11.6453 37.0053 11.3893 37.432 11.208C37.8693 11.016 38.3653 10.92 38.92 10.92C39.432 10.92 39.8907 10.968 40.296 11.064C40.712 11.1493 41.0373 11.24 41.272 11.336V16.024C41.272 16.44 41.3413 16.7387 41.48 16.92C41.6293 17.1013 41.8213 17.192 42.056 17.192C42.4187 17.192 42.712 17.08 42.936 16.856C43.1707 16.6213 43.352 16.3333 43.48 15.992C43.6187 15.64 43.7147 15.272 43.768 14.888C43.8213 14.4933 43.848 14.136 43.848 13.816C43.848 13.1227 43.7307 12.4613 43.496 11.832C43.2613 11.2027 42.92 10.6533 42.472 10.184C42.0347 9.704 41.496 9.32533 40.856 9.048C40.216 8.76 39.4907 8.616 38.68 8.616C37.8587 8.616 37.112 8.74933 36.44 9.016C35.768 9.272 35.192 9.65067 34.712 10.152C34.232 10.6533 33.8587 11.272 33.592 12.008C33.3253 12.7333 33.192 13.5653 33.192 14.504C33.192 15.496 33.336 16.3653 33.624 17.112C33.9227 17.8587 34.328 18.4827 34.84 18.984C35.352 19.4853 35.9547 19.8587 36.648 20.104C37.352 20.36 38.1093 20.488 38.92 20.488C39.5387 20.488 40.024 20.456 40.376 20.392C40.7387 20.3387 40.9787 20.2907 41.096 20.248L41.208 21.128C41.0267 21.1813 40.7227 21.24 40.296 21.304C39.8693 21.368 39.4107 21.4 38.92 21.4C37.992 21.4 37.1173 21.2613 36.296 20.984C35.4747 20.7173 34.7547 20.296 34.136 19.72C33.528 19.1547 33.0427 18.44 32.68 17.576C32.328 16.712 32.152 15.688 32.152 14.504C32.152 13.3627 32.3227 12.3653 32.664 11.512C33.0053 10.6587 33.4693 9.94933 34.056 9.384C34.6533 8.81867 35.3467 8.39733 36.136 8.12C36.936 7.84267 37.784 7.704 38.68 7.704C39.5333 7.704 40.3333 7.848 41.08 8.136C41.8373 8.424 42.4987 8.83467 43.064 9.368C43.6293 9.90133 44.072 10.5467 44.392 11.304C44.7227 12.0613 44.888 12.9093 44.888 13.848C44.888 14.5413 44.8133 15.1547 44.664 15.688C44.5147 16.2107 44.3067 16.648 44.04 17C43.784 17.352 43.48 17.6187 43.128 17.8C42.776 17.9813 42.3973 18.072 41.992 18.072ZM38.776 17.224C39.1387 17.224 39.432 17.1973 39.656 17.144C39.88 17.08 40.1147 16.9733 40.36 16.824C40.3173 16.7173 40.2853 16.584 40.264 16.424C40.2533 16.2533 40.248 16.1093 40.248 15.992V11.928C40.1627 11.9067 40.024 11.88 39.832 11.848C39.64 11.8053 39.3733 11.784 39.032 11.784C38.6267 11.784 38.264 11.8533 37.944 11.992C37.6347 12.12 37.3733 12.3067 37.16 12.552C36.9467 12.7867 36.7867 13.0747 36.68 13.416C36.5733 13.7467 36.52 14.1093 36.52 14.504C36.52 14.9733 36.5787 15.3787 36.696 15.72C36.8133 16.0613 36.9733 16.344 37.176 16.568C37.3787 16.792 37.6187 16.9573 37.896 17.064C38.1733 17.1707 38.4667 17.224 38.776 17.224ZM47.4229 11.016C47.7322 10.9307 48.1482 10.8347 48.6709 10.728C49.1935 10.6213 49.8335 10.568 50.5909 10.568C51.2202 10.568 51.7429 10.6587 52.1589 10.84C52.5855 11.0213 52.9215 11.2827 53.1669 11.624C53.4229 11.9547 53.6042 12.3547 53.7109 12.824C53.8175 13.2933 53.8709 13.8107 53.8709 14.376V19H52.8309V14.712C52.8309 14.1253 52.7882 13.6293 52.7029 13.224C52.6282 12.8187 52.4949 12.488 52.3029 12.232C52.1215 11.976 51.8762 11.7947 51.5669 11.688C51.2682 11.5707 50.8895 11.512 50.4309 11.512C49.9402 11.512 49.5135 11.5387 49.1509 11.592C48.7989 11.6453 48.5695 11.6933 48.4629 11.736V19H47.4229V11.016ZM56.0363 14.856C56.0363 14.1307 56.1376 13.5013 56.3403 12.968C56.5536 12.424 56.8256 11.9707 57.1562 11.608C57.4976 11.2453 57.8816 10.9787 58.3083 10.808C58.7456 10.6267 59.1936 10.536 59.6523 10.536C60.6656 10.536 61.4709 10.8667 62.0683 11.528C62.6763 12.1893 62.9803 13.208 62.9803 14.584C62.9803 14.6693 62.9749 14.7547 62.9643 14.84C62.9643 14.9253 62.9589 15.0053 62.9483 15.08H57.1403C57.1723 16.0933 57.4229 16.872 57.8923 17.416C58.3616 17.96 59.1083 18.232 60.1323 18.232C60.6976 18.232 61.1456 18.1787 61.4763 18.072C61.8069 17.9653 62.0469 17.8747 62.1963 17.8L62.3883 18.696C62.2389 18.7813 61.9563 18.8827 61.5403 19C61.1349 19.1173 60.6549 19.176 60.1003 19.176C59.3749 19.176 58.7563 19.0693 58.2443 18.856C57.7323 18.6427 57.3109 18.344 56.9803 17.96C56.6496 17.576 56.4096 17.1227 56.2603 16.6C56.1109 16.0667 56.0363 15.4853 56.0363 14.856ZM61.9083 14.2C61.8869 13.336 61.6843 12.664 61.3003 12.184C60.9163 11.704 60.3723 11.464 59.6683 11.464C59.2949 11.464 58.9589 11.5387 58.6603 11.688C58.3723 11.8373 58.1163 12.04 57.8923 12.296C57.6789 12.5413 57.5083 12.8293 57.3803 13.16C57.2629 13.4907 57.1936 13.8373 57.1723 14.2H61.9083ZM66.2739 10.728H69.5699V11.608H66.2739V16.008C66.2739 16.4773 66.3112 16.8613 66.3859 17.16C66.4712 17.448 66.5885 17.672 66.7379 17.832C66.8872 17.992 67.0685 18.0987 67.2819 18.152C67.4952 18.2053 67.7299 18.232 67.9859 18.232C68.4232 18.232 68.7752 18.184 69.0419 18.088C69.3085 17.9813 69.5165 17.8853 69.6659 17.8L69.9219 18.664C69.7725 18.76 69.5112 18.872 69.1379 19C68.7645 19.1173 68.3592 19.176 67.9219 19.176C67.4099 19.176 66.9779 19.112 66.6259 18.984C66.2845 18.8453 66.0072 18.6427 65.7939 18.376C65.5912 18.0987 65.4472 17.7573 65.3619 17.352C65.2765 16.9467 65.2339 16.4667 65.2339 15.912V8.296L66.2739 8.104V10.728ZM74.9094 19.176C74.2694 19.176 73.704 19.0747 73.2134 18.872C72.7227 18.6693 72.312 18.3813 71.9814 18.008C71.6614 17.624 71.416 17.1707 71.2454 16.648C71.0747 16.1147 70.9894 15.528 70.9894 14.888C70.9894 14.2373 71.0747 13.6453 71.2454 13.112C71.4267 12.5787 71.6827 12.12 72.0134 11.736C72.344 11.352 72.744 11.0587 73.2134 10.856C73.6827 10.6427 74.2107 10.536 74.7974 10.536C75.2454 10.536 75.6614 10.5733 76.0454 10.648C76.44 10.7227 76.744 10.8187 76.9574 10.936L76.6854 11.832C76.472 11.7253 76.232 11.64 75.9654 11.576C75.6987 11.512 75.3414 11.48 74.8934 11.48C73.976 11.48 73.2774 11.7787 72.7974 12.376C72.328 12.9627 72.0934 13.8 72.0934 14.888C72.0934 15.3787 72.1467 15.832 72.2534 16.248C72.36 16.6533 72.5307 17.0053 72.7654 17.304C73.0107 17.592 73.32 17.8213 73.6934 17.992C74.0774 18.152 74.5414 18.232 75.0854 18.232C75.5334 18.232 75.9067 18.184 76.2054 18.088C76.5147 17.9813 76.7387 17.8907 76.8774 17.816L77.1014 18.712C76.9094 18.8187 76.6054 18.92 76.1894 19.016C75.784 19.1227 75.3574 19.176 74.9094 19.176ZM85.9008 14.872C85.9008 15.5227 85.8048 16.1147 85.6128 16.648C85.4314 17.1813 85.1701 17.6347 84.8288 18.008C84.4981 18.3813 84.1034 18.6747 83.6448 18.888C83.1861 19.0907 82.6794 19.192 82.1248 19.192C81.5701 19.192 81.0634 19.0907 80.6048 18.888C80.1461 18.6747 79.7461 18.3813 79.4048 18.008C79.0741 17.6347 78.8128 17.1813 78.6208 16.648C78.4394 16.1147 78.3488 15.5227 78.3488 14.872C78.3488 14.2213 78.4394 13.6293 78.6208 13.096C78.8128 12.5627 79.0741 12.1093 79.4048 11.736C79.7461 11.352 80.1461 11.0587 80.6048 10.856C81.0634 10.6427 81.5701 10.536 82.1248 10.536C82.6794 10.536 83.1861 10.6427 83.6448 10.856C84.1034 11.0587 84.4981 11.352 84.8288 11.736C85.1701 12.1093 85.4314 12.5627 85.6128 13.096C85.8048 13.6293 85.9008 14.2213 85.9008 14.872ZM84.7968 14.872C84.7968 13.8373 84.5568 13.016 84.0768 12.408C83.5968 11.7893 82.9461 11.48 82.1248 11.48C81.3034 11.48 80.6528 11.7893 80.1728 12.408C79.6928 13.016 79.4528 13.8373 79.4528 14.872C79.4528 15.9067 79.6928 16.728 80.1728 17.336C80.6528 17.944 81.3034 18.248 82.1248 18.248C82.9461 18.248 83.5968 17.944 84.0768 17.336C84.5568 16.728 84.7968 15.9067 84.7968 14.872ZM94.5093 18.712C94.1999 18.7973 93.7839 18.8933 93.2613 19C92.7386 19.1067 92.0986 19.16 91.3413 19.16C90.7226 19.16 90.2053 19.0693 89.7893 18.888C89.3733 18.7067 89.0373 18.4507 88.7812 18.12C88.5253 17.7893 88.3386 17.3893 88.2213 16.92C88.1146 16.4507 88.0613 15.9333 88.0613 15.368V10.728H89.1013V15.032C89.1013 15.6187 89.1439 16.1147 89.2293 16.52C89.3146 16.9253 89.4533 17.256 89.6453 17.512C89.8373 17.7573 90.0826 17.9387 90.3813 18.056C90.6906 18.1627 91.0639 18.216 91.5013 18.216C91.9919 18.216 92.4186 18.1893 92.7813 18.136C93.1439 18.0827 93.3733 18.0347 93.4693 17.992V10.728H94.5093V18.712ZM102.403 11.576C102.157 11.8533 101.837 12.2373 101.443 12.728C101.048 13.2187 100.627 13.768 100.179 14.376C99.7306 14.9733 99.288 15.6027 98.8506 16.264C98.4133 16.9147 98.0293 17.5333 97.6986 18.12H102.547V19H96.4986V18.248C96.776 17.7253 97.1173 17.1493 97.5226 16.52C97.9386 15.8907 98.3653 15.272 98.8026 14.664C99.24 14.0453 99.6666 13.4693 100.083 12.936C100.499 12.392 100.851 11.9493 101.139 11.608H96.7386V10.728H102.403V11.576Z" fill="white"/>
<path d="M15.0961 25.8308C14.9878 25.8485 14.8791 25.8647 14.77 25.8796C14.8791 25.8647 14.9878 25.8485 15.0961 25.8308Z" fill="black"/>
<path d="M15.3562 25.7864C15.3045 25.7959 15.2527 25.8046 15.2009 25.8136C15.2527 25.8046 15.3045 25.7959 15.3562 25.7864Z" fill="black"/>
<path d="M14.4797 25.9158C14.3529 25.9301 14.2254 25.9427 14.0974 25.9535C14.2254 25.9427 14.3529 25.9301 14.4797 25.9158Z" fill="black"/>
<path d="M14.7294 25.8853C14.6685 25.8934 14.6072 25.9009 14.5461 25.9081C14.6072 25.9009 14.6685 25.8934 14.7294 25.8853Z" fill="black"/>
<path d="M15.71 25.7161C15.6644 25.7258 15.6186 25.7355 15.5728 25.7448C15.6186 25.7355 15.6644 25.7258 15.71 25.7161Z" fill="black"/>
<path d="M16.5885 25.498C16.5516 25.5086 16.5147 25.5185 16.4778 25.5288C16.5147 25.5185 16.5516 25.5086 16.5885 25.498Z" fill="black"/>
<path d="M16.3228 25.5706C16.2827 25.5811 16.2424 25.5918 16.2021 25.6019C16.2424 25.5918 16.2827 25.5813 16.3228 25.5706Z" fill="black"/>
<path d="M15.9753 25.6575C15.9329 25.6674 15.89 25.6767 15.8472 25.6862C15.89 25.6767 15.9329 25.6674 15.9753 25.6575Z" fill="black"/>
<path d="M14.0932 25.9539C14.0248 25.9596 13.9563 25.9648 13.8877 25.9693C13.9563 25.9648 14.0248 25.9596 14.0932 25.9539Z" fill="black"/>
<path d="M26 13C26 5.8214 20.1786 0 13 0C5.8214 0 0 5.8214 0 13C0 20.1786 5.8214 26 13 26C13.0764 26 13.1523 25.9984 13.2285 25.997V15.8771H10.4355V12.6221H13.2285V10.2269C13.2285 7.44897 14.9243 5.93704 17.4023 5.93704C18.5889 5.93704 19.6089 6.02551 19.9062 6.06499V8.96825H18.1975C16.8495 8.96825 16.5884 9.60896 16.5884 10.549V12.6221H19.8118L19.3917 15.8771H16.5884V25.4977C22.0222 23.94 26 18.9339 26 13Z" fill="white"/>
<path d="M13.8589 25.9709C13.7236 25.9797 13.5877 25.9866 13.4514 25.9912C13.5877 25.9866 13.7236 25.9797 13.8589 25.9709Z" fill="black"/>
<path d="M13.4446 25.9917C13.3728 25.9941 13.3008 25.9959 13.2288 25.9971C13.3008 25.9959 13.3728 25.9941 13.4446 25.9917Z" fill="black"/>
</svg>
